<svg width="290" height="290" viewBox="0 0 290 290" fill="none" xmlns="http://www.w3.org/2000/svg">
<mask id="mask0_1_121" style="mask-type:alpha" maskUnits="userSpaceOnUse" x="0" y="0" width="290" height="290">
<path fill-rule="evenodd" clip-rule="evenodd" d="M145 290C225.081 290 290 225.081 290 145C290 64.9187 225.081 0 145 0C64.9187 0 -3.05176e-05 64.9187 -3.05176e-05 145C-3.05176e-05 225.081 64.9187 290 145 290ZM145 245C200.228 245 245 200.228 245 145C245 89.7715 200.228 45 145 45C89.7715 45 45 89.7715 45 145C45 200.228 89.7715 245 145 245Z" fill="#C4C4C4"/>
</mask>
<g mask="url(#mask0_1_121)">
<g opacity="0.7">
<g opacity="0.7">
<g opacity="0.7">
<path opacity="0.7" d="M126.116 -49.9939L-240 316.122L-238.418 317.704L127.698 -48.4121L126.116 -49.9939Z" fill="#B5B7BF"/>
</g>
<g opacity="0.7">
<path opacity="0.7" d="M137.398 -49.9949L-228.719 316.121L-227.137 317.703L138.979 -48.4131L137.398 -49.9949Z" fill="#B5B7BF"/>
</g>
<g opacity="0.7">
<path opacity="0.7" d="M148.678 -49.9943L-217.439 316.122L-215.857 317.704L150.26 -48.4124L148.678 -49.9943Z" fill="#B5B7BF"/>
</g>
<g opacity="0.7">
<path opacity="0.7" d="M159.959 -49.9951L-206.157 316.121L-204.575 317.703L161.541 -48.4133L159.959 -49.9951Z" fill="#B5B7BF"/>
</g>
<g opacity="0.7">
<path opacity="0.7" d="M171.242 -49.9973L-194.874 316.119L-193.293 317.701L172.824 -48.4155L171.242 -49.9973Z" fill="#B5B7BF"/>
</g>
<g opacity="0.7">
<path opacity="0.7" d="M182.522 -49.9972L-183.594 316.119L-182.012 317.701L184.104 -48.4154L182.522 -49.9972Z" fill="#B5B7BF"/>
</g>
<g opacity="0.7">
<path opacity="0.7" d="M193.803 -49.9978L-172.313 316.119L-170.731 317.7L195.385 -48.416L193.803 -49.9978Z" fill="#B5B7BF"/>
</g>
<g opacity="0.7">
<path opacity="0.7" d="M205.083 -49.9976L-161.033 316.119L-159.451 317.701L206.665 -48.4157L205.083 -49.9976Z" fill="#B5B7BF"/>
</g>
<g opacity="0.7">
<path opacity="0.7" d="M216.365 -49.9984L-149.751 316.118L-148.17 317.7L217.947 -48.4166L216.365 -49.9984Z" fill="#B5B7BF"/>
</g>
<g opacity="0.7">
<path opacity="0.7" d="M227.645 -49.9978L-138.471 316.119L-136.889 317.7L229.227 -48.416L227.645 -49.9978Z" fill="#B5B7BF"/>
</g>
<g opacity="0.7">
<path opacity="0.7" d="M238.925 -49.9976L-127.191 316.119L-125.609 317.701L240.507 -48.4157L238.925 -49.9976Z" fill="#B5B7BF"/>
</g>
<g opacity="0.7">
<path opacity="0.7" d="M250.208 -50L-115.909 316.116L-114.327 317.698L251.789 -48.4182L250.208 -50Z" fill="#B5B7BF"/>
</g>
<g opacity="0.7">
<path opacity="0.7" d="M261.488 -49.9996L-104.629 316.117L-103.047 317.699L263.07 -48.4178L261.488 -49.9996Z" fill="#B5B7BF"/>
</g>
<g opacity="0.7">
<path opacity="0.7" d="M272.768 -49.999L-93.3482 316.117L-91.7664 317.699L274.35 -48.4172L272.768 -49.999Z" fill="#B5B7BF"/>
</g>
<g opacity="0.7">
<path opacity="0.7" d="M284.057 -49.9412L-82.1109 316.123L-80.5293 317.705L285.639 -48.3591L284.057 -49.9412Z" fill="#B5B7BF"/>
</g>
<g opacity="0.7">
<path opacity="0.7" d="M295.345 -49.9514L-70.8233 316.113L-69.2417 317.695L296.926 -48.3694L295.345 -49.9514Z" fill="#B5B7BF"/>
</g>
<g opacity="0.7">
<path opacity="0.7" d="M306.626 -49.95L-59.5421 316.115L-57.9605 317.697L308.208 -48.3679L306.626 -49.95Z" fill="#B5B7BF"/>
</g>
<g opacity="0.7">
<path opacity="0.7" d="M317.907 -49.949L-48.2614 316.116L-46.6798 317.698L319.488 -48.3669L317.907 -49.949Z" fill="#B5B7BF"/>
</g>
<g opacity="0.7">
<path opacity="0.7" d="M329.189 -49.9492L-36.9794 316.115L-35.3978 317.697L330.77 -48.3672L329.189 -49.9492Z" fill="#B5B7BF"/>
</g>
<g opacity="0.7">
<path opacity="0.7" d="M340.47 -49.9502L-25.6978 316.114L-24.1162 317.696L342.052 -48.3682L340.47 -49.9502Z" fill="#B5B7BF"/>
</g>
<g opacity="0.7">
<path opacity="0.7" d="M351.752 -49.9484L-14.4164 316.116L-12.8349 317.698L353.333 -48.3663L351.752 -49.9484Z" fill="#B5B7BF"/>
</g>
<g opacity="0.7">
<path opacity="0.7" d="M363.032 -49.9473L-3.13568 316.117L-1.55409 317.699L364.614 -48.3652L363.032 -49.9473Z" fill="#B5B7BF"/>
</g>
<g opacity="0.7">
<path opacity="0.7" d="M374.314 -49.9478L8.14633 316.117L9.72792 317.699L375.896 -48.3657L374.314 -49.9478Z" fill="#B5B7BF"/>
</g>
<g opacity="0.7">
<path opacity="0.7" d="M385.596 -49.9486L19.4276 316.116L21.0091 317.698L387.177 -48.3666L385.596 -49.9486Z" fill="#B5B7BF"/>
</g>
<g opacity="0.7">
<path opacity="0.7" d="M396.877 -49.9468L30.7093 316.118L32.2909 317.7L398.459 -48.3647L396.877 -49.9468Z" fill="#B5B7BF"/>
</g>
<g opacity="0.7">
<path opacity="0.7" d="M408.159 -49.9471L41.9912 316.117L43.5728 317.699L409.741 -48.3651L408.159 -49.9471Z" fill="#B5B7BF"/>
</g>
<g opacity="0.7">
<path opacity="0.7" d="M419.44 -49.946L53.2721 316.119L54.8537 317.701L421.022 -48.364L419.44 -49.946Z" fill="#B5B7BF"/>
</g>
<g opacity="0.7">
<path opacity="0.7" d="M430.723 -49.9486L64.5544 316.116L66.136 317.698L432.304 -48.3666L430.723 -49.9486Z" fill="#B5B7BF"/>
</g>
<g opacity="0.7">
<path opacity="0.7" d="M442.003 -49.9452L75.835 316.119L77.4166 317.701L443.585 -48.3632L442.003 -49.9452Z" fill="#B5B7BF"/>
</g>
<g opacity="0.7">
<path opacity="0.7" d="M453.285 -49.9456L87.1171 316.119L88.6987 317.701L454.867 -48.3636L453.285 -49.9456Z" fill="#B5B7BF"/>
</g>
<g opacity="0.7">
<path opacity="0.7" d="M464.566 -49.9444L98.3979 316.12L99.9795 317.702L466.148 -48.3623L464.566 -49.9444Z" fill="#B5B7BF"/>
</g>
<g opacity="0.7">
<path opacity="0.7" d="M475.848 -49.9472L109.68 316.117L111.262 317.699L477.43 -48.3652L475.848 -49.9472Z" fill="#B5B7BF"/>
</g>
<g opacity="0.7">
<path opacity="0.7" d="M487.13 -49.9451L120.962 316.12L122.544 317.702L488.712 -48.363L487.13 -49.9451Z" fill="#B5B7BF"/>
</g>
<g opacity="0.7">
<path opacity="0.7" d="M498.411 -49.9441L132.243 316.12L133.824 317.703L499.992 -48.3621L498.411 -49.9441Z" fill="#B5B7BF"/>
</g>
<g opacity="0.7">
<path opacity="0.7" d="M509.693 -49.9442L143.525 316.12L145.106 317.702L511.274 -48.3622L509.693 -49.9442Z" fill="#B5B7BF"/>
</g>
<g opacity="0.7">
<path opacity="0.7" d="M520.974 -49.9458L154.805 316.119L156.387 317.701L522.555 -48.3638L520.974 -49.9458Z" fill="#B5B7BF"/>
</g>
<g opacity="0.7">
<path opacity="0.7" d="M532.256 -49.9434L166.088 316.121L167.669 317.703L533.837 -48.3613L532.256 -49.9434Z" fill="#B5B7BF"/>
</g>
<g opacity="0.7">
<path opacity="0.7" d="M543.537 -49.9424L177.368 316.122L178.95 317.704L545.118 -48.3603L543.537 -49.9424Z" fill="#B5B7BF"/>
</g>
<g opacity="0.7">
<path opacity="0.7" d="M554.819 -49.9426L188.651 316.122L190.232 317.704L556.4 -48.3606L554.819 -49.9426Z" fill="#B5B7BF"/>
</g>
<g opacity="0.7">
<path opacity="0.7" d="M566.099 -49.9445L199.931 316.12L201.513 317.702L567.681 -48.3624L566.099 -49.9445Z" fill="#B5B7BF"/>
</g>
<g opacity="0.7">
<path opacity="0.7" d="M577.382 -49.9419L211.213 316.123L212.795 317.705L578.963 -48.3599L577.382 -49.9419Z" fill="#B5B7BF"/>
</g>
</g>
</g>
</g>
</svg>
