<svg width="101" height="166" viewBox="0 0 101 166" fill="none" xmlns="http://www.w3.org/2000/svg">
<g opacity="0.7">
<path d="M57.2626 9.85353C56.5745 9.48335 55.8807 9.1226 55.1811 8.77145L-56.2285 120.181C-55.8774 120.881 -55.5166 121.575 -55.1465 122.263L57.2626 9.85353Z" fill="#41B7A8"/>
<path d="M-50.9002 129.296C-51.3256 128.665 -51.7424 128.027 -52.1506 127.383L62.3831 12.8493C63.0269 13.2576 63.6647 13.6744 64.2963 14.0997L-50.9002 129.296Z" fill="#41B7A8"/>
<path d="M-46.0775 135.759C-46.5546 135.181 -47.024 134.595 -47.4855 134.004L69.0038 17.5145C69.5955 17.976 70.1807 18.4454 70.7594 18.9225L-46.0775 135.759Z" fill="#41B7A8"/>
<path d="M-40.7086 141.671C-41.2357 141.144 -41.7559 140.609 -42.2688 140.068L75.0677 22.7312C75.6092 23.2441 76.1437 23.7642 76.6711 24.2914L-40.7086 141.671Z" fill="#41B7A8"/>
<path d="M-34.7731 147.065C-35.3506 146.589 -35.9214 146.105 -36.4856 145.614L80.6136 28.5144C81.1049 29.0786 81.5886 29.6495 82.0648 30.2269L-34.7731 147.065Z" fill="#41B7A8"/>
<path d="M-28.3132 151.886C-28.9421 151.463 -29.5648 151.031 -30.1812 150.591L85.5906 34.8188C86.0307 35.4352 86.4627 36.0579 86.8862 36.6868L-28.3132 151.886Z" fill="#41B7A8"/>
<path d="M-21.2792 156.134C-21.9626 155.766 -22.6402 155.389 -23.3119 155.003L90.0028 41.6881C90.389 42.3598 90.766 43.0374 91.1337 43.7208L-21.2792 156.134Z" fill="#41B7A8"/>
<path d="M-13.6203 159.762C-14.3635 159.456 -15.1013 159.139 -15.8335 158.811L93.8115 49.1665C94.1387 49.8987 94.4556 50.6364 94.762 51.3796L-13.6203 159.762Z" fill="#41B7A8"/>
<path d="M-5.27289 162.69C-6.08417 162.454 -6.89032 162.205 -7.69113 161.945L96.9446 57.3089C97.205 58.1097 97.4536 58.9158 97.69 59.7271L-5.27289 162.69Z" fill="#41B7A8"/>
<path d="M3.8956 164.803C3.00302 164.65 2.11533 164.483 1.23273 164.302L99.3023 66.2327C99.4833 67.1153 99.6503 68.003 99.8031 68.8956L3.8956 164.803Z" fill="#41B7A8"/>
<path d="M14.0752 165.905C13.0797 165.859 12.0888 165.795 11.1028 165.714L100.714 76.1028C100.795 77.0888 100.859 78.0797 100.905 79.0752L14.0752 165.905Z" fill="#41B7A8"/>
<path d="M25.6231 165.65C24.4947 165.753 23.3598 165.833 22.2188 165.89L100.889 87.2421C100.832 88.3831 100.751 89.5181 100.648 90.6464L25.6231 165.65Z" fill="#41B7A8"/>
<path d="M39.3261 163.229C37.9561 163.593 36.5722 163.922 35.1754 164.216L99.211 100.198C98.9166 101.595 98.5871 102.979 98.2234 104.349L39.3261 163.229Z" fill="#41B7A8"/>
<path d="M58.2305 155.609C56.1705 156.753 54.0568 157.812 51.894 158.781L93.7711 116.916C92.8016 119.078 91.7422 121.191 90.5978 123.251L58.2305 155.609Z" fill="#41B7A8"/>
<path d="M-58.7706 114.611L49.6111 6.22942C48.8607 5.92004 48.1048 5.62133 47.3435 5.3335L-59.6665 112.343C-59.3787 113.105 -59.08 113.861 -58.7706 114.611Z" fill="#41B7A8"/>
<path d="M-61.7001 106.258L41.258 3.29986C40.4358 3.06027 39.6083 2.83306 38.7758 2.61845L-62.3815 103.776C-62.1669 104.608 -61.9397 105.436 -61.7001 106.258Z" fill="#41B7A8"/>
<path d="M-63.8128 97.0873L32.0873 1.18721C31.1783 1.03175 30.2643 0.891075 29.3455 0.765434L-64.2346 94.3455C-64.1089 95.2643 -63.9682 96.1783 -63.8128 97.0873Z" fill="#41B7A8"/>
<path d="M-64.9136 86.907L21.907 0.0864182C20.886 0.0390549 19.8602 0.0101395 18.8298 0L-65 83.8298C-64.9899 84.8602 -64.9609 85.886 -64.9136 86.907Z" fill="#41B7A8"/>
<path d="M-64.6591 75.3775L10.3775 0.340866C9.18137 0.449715 7.99258 0.583931 6.81168 0.742989L-64.257 71.8117C-64.416 72.9926 -64.5503 74.1814 -64.6591 75.3775Z" fill="#41B7A8"/>
<path d="M-62.2412 61.6791L-3.32086 2.75879C-4.83551 3.16013 -6.33316 3.60323 -7.8125 4.08676L-60.9132 57.1875C-61.3968 58.6668 -61.8398 60.1645 -62.2412 61.6791Z" fill="#41B7A8"/>
<path d="M-54.6288 42.7818L-22.2181 10.3712C-25.2738 12.0668 -28.2113 13.9497 -31.015 16.0043L-48.9956 33.985C-51.0503 36.7887 -52.9332 39.7261 -54.6288 42.7818Z" fill="#41B7A8"/>
</g>
</svg>
