<svg width="106" height="200" viewBox="0 0 106 200" fill="none" xmlns="http://www.w3.org/2000/svg">
<mask id="mask0_6_23" style="mask-type:alpha" maskUnits="userSpaceOnUse" x="0" y="0" width="201" height="200">
<path fill-rule="evenodd" clip-rule="evenodd" d="M100.805 200C156.141 200 201 155.228 201 100C201 44.7715 156.141 0 100.805 0C45.4683 0 0.609375 44.7715 0.609375 100C0.609375 155.228 45.4683 200 100.805 200ZM100.805 168.965C138.968 168.965 169.905 138.089 169.905 99.9999C169.905 61.9113 138.968 31.0344 100.805 31.0344C62.6416 31.0344 31.7044 61.9113 31.7044 99.9999C31.7044 138.089 62.6416 168.965 100.805 168.965Z" fill="#C4C4C4"/>
</mask>
<g mask="url(#mask0_6_23)">
<g opacity="0.7">
<g opacity="0.7">
<g opacity="0.7">
<path opacity="0.7" d="M87.756 -34.4787L-165.231 218.015L-164.138 219.106L88.849 -33.3877L87.756 -34.4787Z" fill="#B5B7BF"/>
</g>
<g opacity="0.7">
<path opacity="0.7" d="M95.5515 -34.4791L-157.436 218.015L-156.343 219.106L96.6445 -33.3882L95.5515 -34.4791Z" fill="#B5B7BF"/>
</g>
<g opacity="0.7">
<path opacity="0.7" d="M103.346 -34.4787L-149.641 218.015L-148.548 219.106L104.439 -33.3877L103.346 -34.4787Z" fill="#B5B7BF"/>
</g>
<g opacity="0.7">
<path opacity="0.7" d="M111.142 -34.4794L-141.846 218.015L-140.753 219.106L112.235 -33.3885L111.142 -34.4794Z" fill="#B5B7BF"/>
</g>
<g opacity="0.7">
<path opacity="0.7" d="M118.938 -34.4809L-134.049 218.013L-132.956 219.104L120.031 -33.3899L118.938 -34.4809Z" fill="#B5B7BF"/>
</g>
<g opacity="0.7">
<path opacity="0.7" d="M126.733 -34.4809L-126.255 218.013L-125.162 219.104L127.826 -33.3899L126.733 -34.4809Z" fill="#B5B7BF"/>
</g>
<g opacity="0.7">
<path opacity="0.7" d="M134.528 -34.4813L-118.459 218.013L-117.366 219.104L135.621 -33.3904L134.528 -34.4813Z" fill="#B5B7BF"/>
</g>
<g opacity="0.7">
<path opacity="0.7" d="M142.323 -34.4811L-110.665 218.013L-109.572 219.104L143.416 -33.3902L142.323 -34.4811Z" fill="#B5B7BF"/>
</g>
<g opacity="0.7">
<path opacity="0.7" d="M150.118 -34.4816L-102.869 218.012L-101.776 219.103L151.211 -33.3907L150.118 -34.4816Z" fill="#B5B7BF"/>
</g>
<g opacity="0.7">
<path opacity="0.7" d="M157.913 -34.4813L-95.0745 218.013L-93.9814 219.104L159.006 -33.3904L157.913 -34.4813Z" fill="#B5B7BF"/>
</g>
<g opacity="0.7">
<path opacity="0.7" d="M165.707 -34.4811L-87.2799 218.013L-86.1869 219.104L166.8 -33.3902L165.707 -34.4811Z" fill="#B5B7BF"/>
</g>
<g opacity="0.7">
<path opacity="0.7" d="M173.503 -34.4828L-79.4839 218.011L-78.3908 219.102L174.596 -33.3919L173.503 -34.4828Z" fill="#B5B7BF"/>
</g>
<g opacity="0.7">
<path opacity="0.7" d="M181.298 -34.4823L-71.6893 218.012L-70.5963 219.103L182.391 -33.3914L181.298 -34.4823Z" fill="#B5B7BF"/>
</g>
<g opacity="0.7">
<path opacity="0.7" d="M189.093 -34.4821L-63.8945 218.012L-62.8015 219.103L190.186 -33.3912L189.093 -34.4821Z" fill="#B5B7BF"/>
</g>
<g opacity="0.7">
<path opacity="0.7" d="M196.893 -34.4425L-56.1295 218.016L-55.0366 219.107L197.986 -33.3514L196.893 -34.4425Z" fill="#B5B7BF"/>
</g>
<g opacity="0.7">
<path opacity="0.7" d="M204.693 -34.4495L-48.3296 218.009L-47.2367 219.1L205.786 -33.3585L204.693 -34.4495Z" fill="#B5B7BF"/>
</g>
<g opacity="0.7">
<path opacity="0.7" d="M212.489 -34.4486L-40.5344 218.01L-39.4415 219.101L213.581 -33.3575L212.489 -34.4486Z" fill="#B5B7BF"/>
</g>
<g opacity="0.7">
<path opacity="0.7" d="M220.284 -34.4478L-32.7393 218.01L-31.6464 219.102L221.377 -33.3568L220.284 -34.4478Z" fill="#B5B7BF"/>
</g>
<g opacity="0.7">
<path opacity="0.7" d="M228.079 -34.4481L-24.9436 218.01L-23.8507 219.101L229.172 -33.357L228.079 -34.4481Z" fill="#B5B7BF"/>
</g>
<g opacity="0.7">
<path opacity="0.7" d="M235.875 -34.4486L-17.1477 218.01L-16.0548 219.101L236.968 -33.3575L235.875 -34.4486Z" fill="#B5B7BF"/>
</g>
<g opacity="0.7">
<path opacity="0.7" d="M243.671 -34.4476L-9.35229 218.011L-8.25941 219.102L244.764 -33.3565L243.671 -34.4476Z" fill="#B5B7BF"/>
</g>
<g opacity="0.7">
<path opacity="0.7" d="M251.466 -34.4469L-1.55725 218.011L-0.464368 219.103L252.559 -33.3558L251.466 -34.4469Z" fill="#B5B7BF"/>
</g>
<g opacity="0.7">
<path opacity="0.7" d="M259.261 -34.4469L6.2384 218.011L7.33129 219.103L260.354 -33.3558L259.261 -34.4469Z" fill="#B5B7BF"/>
</g>
<g opacity="0.7">
<path opacity="0.7" d="M267.057 -34.4476L14.0338 218.011L15.1267 219.102L268.15 -33.3565L267.057 -34.4476Z" fill="#B5B7BF"/>
</g>
<g opacity="0.7">
<path opacity="0.7" d="M274.853 -34.4464L21.8296 218.012L22.9225 219.103L275.945 -33.3553L274.853 -34.4464Z" fill="#B5B7BF"/>
</g>
<g opacity="0.7">
<path opacity="0.7" d="M282.648 -34.4466L29.6255 218.012L30.7184 219.103L283.741 -33.3556L282.648 -34.4466Z" fill="#B5B7BF"/>
</g>
<g opacity="0.7">
<path opacity="0.7" d="M290.443 -34.4459L37.4204 218.012L38.5133 219.104L291.536 -33.3548L290.443 -34.4459Z" fill="#B5B7BF"/>
</g>
<g opacity="0.7">
<path opacity="0.7" d="M298.24 -34.4476L45.2167 218.011L46.3096 219.102L299.333 -33.3565L298.24 -34.4476Z" fill="#B5B7BF"/>
</g>
<g opacity="0.7">
<path opacity="0.7" d="M306.034 -34.4452L53.0115 218.013L54.1044 219.104L307.127 -33.3541L306.034 -34.4452Z" fill="#B5B7BF"/>
</g>
<g opacity="0.7">
<path opacity="0.7" d="M313.83 -34.4454L60.8075 218.013L61.9004 219.104L314.923 -33.3544L313.83 -34.4454Z" fill="#B5B7BF"/>
</g>
<g opacity="0.7">
<path opacity="0.7" d="M321.626 -34.4447L68.6025 218.014L69.6954 219.105L322.718 -33.3536L321.626 -34.4447Z" fill="#B5B7BF"/>
</g>
<g opacity="0.7">
<path opacity="0.7" d="M329.422 -34.4469L76.3987 218.011L77.4916 219.103L330.515 -33.3558L329.422 -34.4469Z" fill="#B5B7BF"/>
</g>
<g opacity="0.7">
<path opacity="0.7" d="M337.217 -34.4451L84.1943 218.013L85.2872 219.104L338.31 -33.3541L337.217 -34.4451Z" fill="#B5B7BF"/>
</g>
<g opacity="0.7">
<path opacity="0.7" d="M345.012 -34.4447L91.9895 218.014L93.0824 219.105L346.105 -33.3536L345.012 -34.4447Z" fill="#B5B7BF"/>
</g>
<g opacity="0.7">
<path opacity="0.7" d="M352.808 -34.4444L99.7854 218.014L100.878 219.105L353.901 -33.3534L352.808 -34.4444Z" fill="#B5B7BF"/>
</g>
</g>
</g>
</g>
<g opacity="0.7">
<path opacity="0.7" d="M100.824 129.694C84.4297 129.694 71.0916 116.382 71.0916 100.019C71.0916 83.6568 84.4297 70.3447 100.824 70.3447C117.218 70.3447 130.556 83.6568 130.556 100.019C130.556 116.382 117.218 129.694 100.824 129.694ZM100.824 73.5624C86.2079 73.5624 74.3188 85.4316 74.3188 100.016C74.3188 114.604 86.2111 126.469 100.824 126.469C115.44 126.469 127.329 114.6 127.329 100.016C127.329 85.4316 115.437 73.5624 100.824 73.5624Z" fill="#41B7A8"/>
</g>
</svg>
