<svg width="43" height="100" viewBox="0 0 43 100" fill="none" xmlns="http://www.w3.org/2000/svg">
<g opacity="0.7">
<path d="M15.8383 5.93926C15.4228 5.71614 15.0037 5.49869 14.5812 5.28703L-52.7026 72.4397C-52.4906 72.8614 -52.2727 73.2796 -52.0491 73.6944L15.8383 5.93926Z" fill="#41B7A8"/>
<path d="M-49.4847 77.934C-49.7416 77.5533 -49.9933 77.1689 -50.2399 76.7808L18.9308 7.745C19.3196 7.99107 19.7047 8.24233 20.0862 8.49869L-49.4847 77.934Z" fill="#41B7A8"/>
<path d="M-46.5721 81.8296C-46.8602 81.4808 -47.1437 81.1281 -47.4225 80.7714L22.9292 10.5569C23.2865 10.8351 23.64 11.1181 23.9895 11.4056L-46.5721 81.8296Z" fill="#41B7A8"/>
<path d="M-43.3296 85.393C-43.648 85.075 -43.9621 84.7529 -44.2719 84.4265L26.5914 13.7013C26.9184 14.0105 27.2412 14.324 27.5598 14.6418L-43.3296 85.393Z" fill="#41B7A8"/>
<path d="M-39.745 88.644C-40.0937 88.357 -40.4385 88.0654 -40.7792 87.7693L29.9407 17.1872C30.2374 17.5273 30.5296 17.8714 30.8171 18.2194L-39.745 88.644Z" fill="#41B7A8"/>
<path d="M-35.8437 91.5501C-36.2235 91.2949 -36.5995 91.0345 -36.9718 90.7692L32.9465 20.9872C33.2123 21.3587 33.4732 21.7341 33.729 22.1131L-35.8437 91.5501Z" fill="#41B7A8"/>
<path d="M-31.5956 94.1104C-32.0083 93.8887 -32.4176 93.6615 -32.8232 93.4287L35.6112 25.1277C35.8444 25.5326 36.0721 25.941 36.2942 26.3529L-31.5956 94.1104Z" fill="#41B7A8"/>
<path d="M-26.9702 96.2973C-27.419 96.1126 -27.8646 95.9216 -28.3067 95.7244L37.9113 29.6354C38.109 30.0767 38.3003 30.5214 38.4854 30.9693L-26.9702 96.2973Z" fill="#41B7A8"/>
<path d="M-21.9289 98.0622C-22.4188 97.9196 -22.9057 97.7698 -23.3893 97.6129L39.8035 34.5432C39.9608 35.0259 40.1109 35.5118 40.2537 36.0008L-21.9289 98.0622Z" fill="#41B7A8"/>
<path d="M-16.3917 99.3359C-16.9308 99.2438 -17.4669 99.1431 -17.9999 99.034L41.2274 39.9221C41.3368 40.4541 41.4376 40.9892 41.5299 41.5271L-16.3917 99.3359Z" fill="#41B7A8"/>
<path d="M-10.2439 100C-10.8451 99.9721 -11.4436 99.9336 -12.0391 99.8848L42.0799 45.8713C42.1288 46.4656 42.1674 47.0629 42.1953 47.663L-10.2439 100Z" fill="#41B7A8"/>
<path d="M-3.26979 99.8464C-3.95128 99.9084 -4.63669 99.9567 -5.32579 99.9912L42.1858 52.5856C42.1511 53.2734 42.1025 53.9574 42.0402 54.6376L-3.26979 99.8464Z" fill="#41B7A8"/>
<path d="M5.00589 98.3873C4.17851 98.6063 3.34274 98.8047 2.49915 98.9819L41.1723 60.395C40.9945 61.2369 40.7955 62.071 40.5759 62.8967L5.00589 98.3873Z" fill="#41B7A8"/>
<path d="M16.4228 93.7942C15.1788 94.4837 13.9022 95.1218 12.5961 95.7058L37.8869 70.4714C37.3014 71.7748 36.6617 73.0487 35.9705 74.2902L16.4228 93.7942Z" fill="#41B7A8"/>
<path d="M-54.2378 69.0824L11.2174 3.75482C10.7641 3.56833 10.3076 3.38828 9.84785 3.21479L-54.7789 67.7156C-54.6051 68.1745 -54.4247 68.6301 -54.2378 69.0824Z" fill="#41B7A8"/>
<path d="M-56.0071 64.0475L6.17262 1.98901C5.67606 1.84459 5.17632 1.70764 4.67352 1.57828L-56.4186 62.5513C-56.289 63.0532 -56.1518 63.5519 -56.0071 64.0475Z" fill="#41B7A8"/>
<path d="M-57.283 58.5199L0.634167 0.715597C0.0851936 0.621894 -0.46682 0.5371 -1.02172 0.461369L-57.5377 56.8672C-57.4618 57.421 -57.3769 57.972 -57.283 58.5199Z" fill="#41B7A8"/>
<path d="M-57.9478 52.3836L-5.51406 0.052089C-6.13069 0.0235405 -6.75022 0.00611161 -7.37247 0L-58 50.5288C-57.9939 51.1499 -57.9764 51.7682 -57.9478 52.3836Z" fill="#41B7A8"/>
<path d="M-57.7941 45.4341L-12.4771 0.205459C-13.1995 0.271068 -13.9174 0.351967 -14.6306 0.44784L-57.5513 43.2848C-57.6473 43.9966 -57.7284 44.7132 -57.7941 45.4341Z" fill="#41B7A8"/>
<path d="M-56.3339 37.1774L-20.75 1.66287C-21.6647 1.90479 -22.5692 2.17186 -23.4626 2.46332L-55.5319 34.47C-55.8239 35.3617 -56.0915 36.2644 -56.3339 37.1774Z" fill="#41B7A8"/>
<path d="M-51.7365 25.787L-32.1627 6.25127C-34.0081 7.27332 -35.7821 8.40825 -37.4754 9.6467L-48.3344 20.4846C-49.5753 22.1746 -50.7125 23.9451 -51.7365 25.787Z" fill="#41B7A8"/>
</g>
</svg>
