<svg width="54" height="3" viewBox="0 0 54 3" fill="none" xmlns="http://www.w3.org/2000/svg">
<path opacity="0.7" d="M22.5941 1.10359C22.5941 1.71319 22.1 2.20721 21.4904 2.20721C20.8809 2.20721 20.3868 1.71319 20.3868 1.10359C20.3868 0.494 20.8809 0 21.4904 0C22.1 0 22.5941 0.492135 22.5941 1.10359Z" fill="#B5B7BF"/>
<path opacity="0.7" d="M32.7875 1.1036C32.7875 1.71319 32.2935 2.20722 31.6839 2.20722C31.0743 2.20722 30.5803 1.71319 30.5803 1.1036C30.5803 0.494005 31.0743 5.25889e-06 31.6839 5.25889e-06C32.2935 -0.00185895 32.7875 0.492141 32.7875 1.1036Z" fill="#B5B7BF"/>
<path opacity="0.7" d="M42.981 1.1036C42.981 1.71319 42.487 2.20722 41.8774 2.20722C41.2678 2.20722 40.7738 1.71319 40.7738 1.1036C40.7738 0.494005 41.2678 5.25889e-06 41.8774 5.25889e-06C42.487 -0.00185895 42.981 0.492141 42.981 1.1036Z" fill="#B5B7BF"/>
<path opacity="0.7" d="M53.1745 1.1036C53.1745 1.71319 52.6805 2.20722 52.0709 2.20722C51.4613 2.20722 50.9673 1.71319 50.9673 1.1036C50.9673 0.494005 51.4613 5.25889e-06 52.0709 5.25889e-06C52.6805 -0.00185895 53.1745 0.492141 53.1745 1.1036Z" fill="#B5B7BF"/>
<path opacity="0.7" d="M2.20722 1.10359C2.20722 1.71319 1.7132 2.20721 1.10361 2.20721C0.494014 2.20721 0 1.71319 0 1.10359C0 0.494 0.494014 0 1.10361 0C1.7132 0 2.20722 0.492135 2.20722 1.10359Z" fill="#B5B7BF"/>
<path opacity="0.7" d="M12.4006 1.10359C12.4006 1.71319 11.9066 2.20721 11.297 2.20721C10.6874 2.20721 10.1934 1.71319 10.1934 1.10359C10.1934 0.494 10.6874 0 11.297 0C11.9066 0 12.4006 0.492135 12.4006 1.10359Z" fill="#B5B7BF"/>
</svg>
