<svg width="167" height="106" viewBox="0 0 167 106" fill="none" xmlns="http://www.w3.org/2000/svg">
<path opacity="0.7" d="M101.16 62.664C101.16 63.9729 100.099 65.0344 98.7868 65.0344C97.4747 65.0344 96.4134 63.9729 96.4134 62.664C96.4134 61.352 97.4747 60.2906 98.7868 60.2906C100.099 60.2906 101.16 61.352 101.16 62.664Z" fill="#B5B7BF"/>
<path opacity="0.7" d="M123.062 62.664C123.062 63.9729 122.001 65.0344 120.689 65.0344C119.38 65.0344 118.316 63.9729 118.316 62.664C118.316 61.352 119.377 60.2906 120.689 60.2906C121.998 60.2906 123.062 61.352 123.062 62.664Z" fill="#B5B7BF"/>
<path opacity="0.7" d="M144.965 62.664C144.965 63.9729 143.903 65.0344 142.591 65.0344C141.282 65.0344 140.218 63.9729 140.218 62.664C140.218 61.352 141.279 60.2906 142.591 60.2906C143.9 60.2906 144.965 61.352 144.965 62.664Z" fill="#B5B7BF"/>
<path opacity="0.7" d="M166.867 62.664C166.867 63.9729 165.806 65.0344 164.494 65.0344C163.185 65.0344 162.12 63.9729 162.12 62.664C162.12 61.352 163.182 60.2906 164.494 60.2906C165.802 60.2906 166.867 61.352 166.867 62.664Z" fill="#B5B7BF"/>
<path opacity="0.7" d="M101.16 42.5659C101.16 43.8748 100.099 44.9363 98.7868 44.9363C97.4747 44.9363 96.4134 43.8748 96.4134 42.5659C96.4134 41.2539 97.4747 40.1925 98.7868 40.1925C100.099 40.1925 101.16 41.2539 101.16 42.5659Z" fill="#B5B7BF"/>
<path opacity="0.7" d="M123.062 42.5659C123.062 43.8748 122.001 44.9363 120.689 44.9363C119.38 44.9363 118.316 43.8748 118.316 42.5659C118.316 41.2539 119.377 40.1925 120.689 40.1925C121.998 40.1925 123.062 41.2539 123.062 42.5659Z" fill="#B5B7BF"/>
<path opacity="0.7" d="M144.965 42.5659C144.965 43.8748 143.903 44.9363 142.591 44.9363C141.282 44.9363 140.218 43.8748 140.218 42.5659C140.218 41.2539 141.279 40.1925 142.591 40.1925C143.9 40.1925 144.965 41.2539 144.965 42.5659Z" fill="#B5B7BF"/>
<path opacity="0.7" d="M166.867 42.5659C166.867 43.8748 165.806 44.9363 164.494 44.9363C163.185 44.9363 162.12 43.8748 162.12 42.5659C162.12 41.2539 163.182 40.1925 164.494 40.1925C165.802 40.1925 166.867 41.2539 166.867 42.5659Z" fill="#B5B7BF"/>
<path opacity="0.7" d="M101.16 22.4677C101.16 23.7766 100.099 24.8411 98.7868 24.8411C97.4747 24.8411 96.4134 23.7766 96.4134 22.4677C96.4134 21.1556 97.4747 20.0943 98.7868 20.0943C100.099 20.0943 101.16 21.1587 101.16 22.4677Z" fill="#B5B7BF"/>
<path opacity="0.7" d="M123.062 22.4677C123.062 23.7766 122.001 24.8411 120.689 24.8411C119.38 24.8411 118.316 23.7766 118.316 22.4677C118.316 21.1556 119.377 20.0943 120.689 20.0943C121.998 20.0943 123.062 21.1587 123.062 22.4677Z" fill="#B5B7BF"/>
<path opacity="0.7" d="M144.965 22.4677C144.965 23.7766 143.903 24.8411 142.591 24.8411C141.282 24.8411 140.218 23.7766 140.218 22.4677C140.218 21.1556 141.279 20.0943 142.591 20.0943C143.9 20.0943 144.965 21.1587 144.965 22.4677Z" fill="#B5B7BF"/>
<path opacity="0.7" d="M166.867 22.4677C166.867 23.7766 165.806 24.8411 164.494 24.8411C163.185 24.8411 162.12 23.7766 162.12 22.4677C162.12 21.1556 163.182 20.0943 164.494 20.0943C165.802 20.0943 166.867 21.1587 166.867 22.4677Z" fill="#B5B7BF"/>
<path opacity="0.7" d="M101.16 2.37258C101.16 3.68152 100.099 4.74597 98.7868 4.74597C97.4747 4.74597 96.4134 3.68461 96.4134 2.37258C96.4134 1.06365 97.4747 -0.000880241 98.7868 -0.000880241C100.099 -0.000880241 101.16 1.06055 101.16 2.37258Z" fill="#B5B7BF"/>
<path opacity="0.7" d="M123.062 2.37258C123.062 3.68152 122.001 4.74597 120.689 4.74597C119.38 4.74597 118.316 3.68461 118.316 2.37258C118.316 1.06365 119.377 -0.000880241 120.689 -0.000880241C121.998 -0.000880241 123.062 1.06055 123.062 2.37258Z" fill="#B5B7BF"/>
<path opacity="0.7" d="M144.965 2.37258C144.965 3.68152 143.903 4.74597 142.591 4.74597C141.282 4.74597 140.218 3.68461 140.218 2.37258C140.218 1.06365 141.279 -0.000880241 142.591 -0.000880241C143.9 -0.000880241 144.965 1.06055 144.965 2.37258Z" fill="#B5B7BF"/>
<path opacity="0.7" d="M166.867 2.37258C166.867 3.68152 165.806 4.74597 164.494 4.74597C163.185 4.74597 162.12 3.68461 162.12 2.37258C162.12 1.06365 163.182 -0.000880241 164.494 -0.000880241C165.802 -0.000880241 166.867 1.06055 166.867 2.37258Z" fill="#B5B7BF"/>
<path opacity="0.7" d="M35.4535 62.664C35.4535 63.9729 34.3921 65.0344 33.0801 65.0344C31.7681 65.0344 30.7067 63.9729 30.7067 62.664C30.7067 61.352 31.7681 60.2906 33.0801 60.2906C34.3921 60.2906 35.4535 61.352 35.4535 62.664Z" fill="#B5B7BF"/>
<path opacity="0.7" d="M57.3558 62.664C57.3558 63.9729 56.2944 65.0344 54.9824 65.0344C53.6734 65.0344 52.6089 63.9729 52.6089 62.664C52.6089 61.352 53.6703 60.2906 54.9824 60.2906C56.2944 60.2906 57.3558 61.352 57.3558 62.664Z" fill="#B5B7BF"/>
<path opacity="0.7" d="M79.258 62.664C79.258 63.9729 78.1966 65.0344 76.8846 65.0344C75.5726 65.0344 74.5112 63.9729 74.5112 62.664C74.5112 61.352 75.5726 60.2906 76.8846 60.2906C78.1966 60.2906 79.258 61.352 79.258 62.664Z" fill="#B5B7BF"/>
<path opacity="0.7" d="M35.4535 42.5659C35.4535 43.8748 34.3921 44.9363 33.0801 44.9363C31.7681 44.9363 30.7067 43.8748 30.7067 42.5659C30.7067 41.2539 31.7681 40.1925 33.0801 40.1925C34.3921 40.1925 35.4535 41.2539 35.4535 42.5659Z" fill="#B5B7BF"/>
<path opacity="0.7" d="M57.3558 42.5659C57.3558 43.8748 56.2944 44.9363 54.9824 44.9363C53.6734 44.9363 52.6089 43.8748 52.6089 42.5659C52.6089 41.2539 53.6703 40.1925 54.9824 40.1925C56.2944 40.1925 57.3558 41.2539 57.3558 42.5659Z" fill="#B5B7BF"/>
<path opacity="0.7" d="M79.258 42.5659C79.258 43.8748 78.1966 44.9363 76.8846 44.9363C75.5726 44.9363 74.5112 43.8748 74.5112 42.5659C74.5112 41.2539 75.5726 40.1925 76.8846 40.1925C78.1966 40.1925 79.258 41.2539 79.258 42.5659Z" fill="#B5B7BF"/>
<path opacity="0.7" d="M35.4535 22.4677C35.4535 23.7766 34.3921 24.8411 33.0801 24.8411C31.7681 24.8411 30.7067 23.7797 30.7067 22.4677C30.7067 21.1556 31.7681 20.0943 33.0801 20.0943C34.3921 20.0943 35.4535 21.1587 35.4535 22.4677Z" fill="#B5B7BF"/>
<path opacity="0.7" d="M101.16 102.842C101.16 104.151 100.099 105.215 98.7868 105.215C97.4747 105.215 96.4134 104.154 96.4134 102.842C96.4134 101.53 97.4778 100.468 98.7868 100.468C100.096 100.468 101.16 101.53 101.16 102.842Z" fill="#B5B7BF"/>
<path opacity="0.7" d="M123.062 102.842C123.062 104.151 122.001 105.215 120.689 105.215C119.38 105.215 118.316 104.154 118.316 102.842C118.316 101.53 119.377 100.468 120.689 100.468C121.998 100.468 123.062 101.53 123.062 102.842Z" fill="#B5B7BF"/>
<path opacity="0.7" d="M144.965 102.842C144.965 104.151 143.903 105.215 142.591 105.215C141.282 105.215 140.218 104.154 140.218 102.842C140.218 101.53 141.279 100.468 142.591 100.468C143.9 100.468 144.965 101.53 144.965 102.842Z" fill="#B5B7BF"/>
<path opacity="0.7" d="M166.867 102.842C166.867 104.151 165.806 105.215 164.494 105.215C163.185 105.215 162.12 104.154 162.12 102.842C162.12 101.53 163.182 100.468 164.494 100.468C165.802 100.468 166.867 101.53 166.867 102.842Z" fill="#B5B7BF"/>
<path opacity="0.7" d="M101.16 82.7437C101.16 84.0527 100.099 85.114 98.7868 85.114C97.4747 85.114 96.4134 84.0527 96.4134 82.7437C96.4134 81.4317 97.4747 80.3703 98.7868 80.3703C100.099 80.3703 101.16 81.4317 101.16 82.7437Z" fill="#B5B7BF"/>
<path opacity="0.7" d="M123.062 82.7437C123.062 84.0527 122.001 85.114 120.689 85.114C119.38 85.114 118.316 84.0527 118.316 82.7437C118.316 81.4317 119.377 80.3703 120.689 80.3703C121.998 80.3703 123.062 81.4317 123.062 82.7437Z" fill="#B5B7BF"/>
<path opacity="0.7" d="M144.965 82.7437C144.965 84.0527 143.903 85.114 142.591 85.114C141.282 85.114 140.218 84.0527 140.218 82.7437C140.218 81.4317 141.279 80.3703 142.591 80.3703C143.9 80.3703 144.965 81.4317 144.965 82.7437Z" fill="#B5B7BF"/>
<path opacity="0.7" d="M166.867 82.7437C166.867 84.0527 165.806 85.114 164.494 85.114C163.185 85.114 162.12 84.0527 162.12 82.7437C162.12 81.4317 163.182 80.3703 164.494 80.3703C165.802 80.3703 166.867 81.4317 166.867 82.7437Z" fill="#B5B7BF"/>
<path opacity="0.7" d="M35.4535 102.842C35.4535 104.151 34.3921 105.212 33.0801 105.212C31.7681 105.212 30.7067 104.151 30.7067 102.842C30.7067 101.53 31.7681 100.468 33.0801 100.468C34.3921 100.468 35.4535 101.53 35.4535 102.842Z" fill="#B5B7BF"/>
<path opacity="0.7" d="M57.3558 102.842C57.3558 104.151 56.2944 105.212 54.9824 105.212C53.6734 105.212 52.6089 104.151 52.6089 102.842C52.6089 101.53 53.6703 100.468 54.9824 100.468C56.2944 100.468 57.3558 101.53 57.3558 102.842Z" fill="#B5B7BF"/>
<path opacity="0.7" d="M79.258 102.842C79.258 104.151 78.1966 105.212 76.8846 105.212C75.5726 105.212 74.5112 104.151 74.5112 102.842C74.5112 101.53 75.5726 100.468 76.8846 100.468C78.1966 100.468 79.258 101.53 79.258 102.842Z" fill="#B5B7BF"/>
<path opacity="0.7" d="M35.4535 82.7437C35.4535 84.0527 34.3921 85.114 33.0801 85.114C31.7681 85.114 30.7067 84.0527 30.7067 82.7437C30.7067 81.4317 31.7681 80.3703 33.0801 80.3703C34.3921 80.3703 35.4535 81.4317 35.4535 82.7437Z" fill="#B5B7BF"/>
<path opacity="0.7" d="M57.3558 82.7437C57.3558 84.0527 56.2944 85.114 54.9824 85.114C53.6734 85.114 52.6089 84.0527 52.6089 82.7437C52.6089 81.4317 53.6703 80.3703 54.9824 80.3703C56.2944 80.3703 57.3558 81.4317 57.3558 82.7437Z" fill="#B5B7BF"/>
<path opacity="0.7" d="M79.258 82.7437C79.258 84.0527 78.1966 85.114 76.8846 85.114C75.5726 85.114 74.5112 84.0527 74.5112 82.7437C74.5112 81.4317 75.5726 80.3703 76.8846 80.3703C78.1966 80.3703 79.258 81.4317 79.258 82.7437Z" fill="#B5B7BF"/>
<path opacity="0.7" d="M57.3558 22.4677C57.3558 23.7766 56.2944 24.8411 54.9824 24.8411C53.6703 24.8411 52.6089 23.7797 52.6089 22.4677C52.6089 21.1556 53.6703 20.0943 54.9824 20.0943C56.2944 20.0943 57.3558 21.1587 57.3558 22.4677Z" fill="#B5B7BF"/>
<path opacity="0.7" d="M79.258 22.4677C79.258 23.7766 78.1966 24.8411 76.8846 24.8411C75.5726 24.8411 74.5112 23.7766 74.5112 22.4677C74.5112 21.1556 75.5726 20.0943 76.8846 20.0943C78.1966 20.0943 79.258 21.1587 79.258 22.4677Z" fill="#B5B7BF"/>
<path opacity="0.7" d="M35.4535 2.37258C35.4535 3.68152 34.3921 4.74597 33.0801 4.74597C31.7681 4.74597 30.7067 3.68461 30.7067 2.37258C30.7067 1.06365 31.7681 -0.000880241 33.0801 -0.000880241C34.3921 -0.000880241 35.4535 1.06055 35.4535 2.37258Z" fill="#B5B7BF"/>
<path opacity="0.7" d="M57.3558 2.37258C57.3558 3.68152 56.2944 4.74597 54.9824 4.74597C53.6703 4.74597 52.6089 3.68461 52.6089 2.37258C52.6089 1.06365 53.6703 -0.000880241 54.9824 -0.000880241C56.2944 -0.000880241 57.3558 1.06055 57.3558 2.37258Z" fill="#B5B7BF"/>
<path opacity="0.7" d="M79.258 2.37258C79.258 3.68152 78.1966 4.74597 76.8846 4.74597C75.5726 4.74597 74.5112 3.68461 74.5112 2.37258C74.5112 1.06365 75.5726 -0.000880241 76.8846 -0.000880241C78.1966 -0.000880241 79.258 1.06055 79.258 2.37258Z" fill="#B5B7BF"/>
<path opacity="0.7" d="M13.5513 62.664C13.5513 63.9729 12.4899 65.0344 11.1778 65.0344C9.8658 65.0344 8.80444 63.9729 8.80444 62.664C8.80444 61.352 9.8658 60.2906 11.1778 60.2906C12.4899 60.2906 13.5513 61.352 13.5513 62.664Z" fill="#B5B7BF"/>
<path opacity="0.7" d="M13.5513 42.5659C13.5513 43.8748 12.4899 44.9363 11.1778 44.9363C9.8658 44.9363 8.80444 43.8748 8.80444 42.5659C8.80444 41.2539 9.8658 40.1925 11.1778 40.1925C12.4899 40.1925 13.5513 41.2539 13.5513 42.5659Z" fill="#B5B7BF"/>
<path opacity="0.7" d="M13.5513 102.842C13.5513 104.151 12.4899 105.212 11.1778 105.212C9.8658 105.212 8.80444 104.151 8.80444 102.842C8.80444 101.53 9.8658 100.468 11.1778 100.468C12.4899 100.468 13.5513 101.53 13.5513 102.842Z" fill="#B5B7BF"/>
<path opacity="0.7" d="M13.5513 82.7437C13.5513 84.0527 12.4899 85.114 11.1778 85.114C9.8658 85.114 8.80444 84.0527 8.80444 82.7437C8.80444 81.4317 9.8658 80.3703 11.1778 80.3703C12.4899 80.3703 13.5513 81.4317 13.5513 82.7437Z" fill="#B5B7BF"/>
<path opacity="0.7" d="M13.5513 22.4677C13.5513 23.7766 12.4899 24.8411 11.1778 24.8411C9.8658 24.8411 8.80444 23.7797 8.80444 22.4677C8.80444 21.1556 9.8658 20.0943 11.1778 20.0943C12.4899 20.0943 13.5513 21.1587 13.5513 22.4677Z" fill="#B5B7BF"/>
<path opacity="0.7" d="M13.5513 2.37258C13.5513 3.68152 12.4899 4.74597 11.1778 4.74597C9.8658 4.74597 8.80444 3.68461 8.80444 2.37258C8.80444 1.06055 9.8658 -0.000880241 11.1778 -0.000880241C12.4899 -0.000880241 13.5513 1.06055 13.5513 2.37258Z" fill="#B5B7BF"/>
</svg>
