<svg width="106" height="137" viewBox="0 0 106 137" fill="none" xmlns="http://www.w3.org/2000/svg">
<path opacity="0.7" d="M42.5513 136.16C41.2424 136.16 40.1809 135.099 40.1809 133.787C40.1809 132.475 41.2424 131.413 42.5513 131.413C43.8633 131.413 44.9247 132.475 44.9247 133.787C44.9247 135.099 43.8633 136.16 42.5513 136.16Z" fill="#B5B7BF"/>
<path opacity="0.7" d="M62.6494 136.16C61.3405 136.16 60.279 135.099 60.279 133.787C60.279 132.475 61.3405 131.413 62.6494 131.413C63.9614 131.413 65.0228 132.475 65.0228 133.787C65.0228 135.099 63.9614 136.16 62.6494 136.16Z" fill="#B5B7BF"/>
<path opacity="0.7" d="M82.7476 136.16C81.4387 136.16 80.3742 135.099 80.3742 133.787C80.3742 132.475 81.4387 131.413 82.7476 131.413C84.0597 131.413 85.121 132.475 85.121 133.787C85.121 135.099 84.0566 136.16 82.7476 136.16Z" fill="#B5B7BF"/>
<path opacity="0.7" d="M102.843 136.16C101.534 136.16 100.469 135.099 100.469 133.787C100.469 132.475 101.531 131.413 102.843 131.413C104.152 131.413 105.216 132.475 105.216 133.787C105.216 135.099 104.155 136.16 102.843 136.16Z" fill="#B5B7BF"/>
<path opacity="0.7" d="M42.5513 70.4534C41.2424 70.4534 40.1809 69.392 40.1809 68.08C40.1809 66.7679 41.2424 65.7065 42.5513 65.7065C43.8633 65.7065 44.9247 66.7679 44.9247 68.08C44.9247 69.392 43.8633 70.4534 42.5513 70.4534Z" fill="#B5B7BF"/>
<path opacity="0.7" d="M42.5513 92.3556C41.2424 92.3556 40.1809 91.2942 40.1809 89.9822C40.1809 88.6733 41.2424 87.6088 42.5513 87.6088C43.8633 87.6088 44.9247 88.6702 44.9247 89.9822C44.9247 91.2942 43.8633 92.3556 42.5513 92.3556Z" fill="#B5B7BF"/>
<path opacity="0.7" d="M42.5513 114.258C41.2424 114.258 40.1809 113.196 40.1809 111.884C40.1809 110.572 41.2424 109.511 42.5513 109.511C43.8633 109.511 44.9247 110.572 44.9247 111.884C44.9247 113.196 43.8633 114.258 42.5513 114.258Z" fill="#41B7A8"/>
<path opacity="0.7" d="M62.6494 70.4534C61.3405 70.4534 60.279 69.392 60.279 68.08C60.279 66.7679 61.3405 65.7065 62.6494 65.7065C63.9614 65.7065 65.0228 66.7679 65.0228 68.08C65.0228 69.392 63.9614 70.4534 62.6494 70.4534Z" fill="#41B7A8"/>
<path opacity="0.7" d="M62.6494 92.3556C61.3405 92.3556 60.279 91.2942 60.279 89.9822C60.279 88.6733 61.3405 87.6088 62.6494 87.6088C63.9614 87.6088 65.0228 88.6702 65.0228 89.9822C65.0228 91.2942 63.9614 92.3556 62.6494 92.3556Z" fill="#B5B7BF"/>
<path opacity="0.7" d="M62.6494 114.258C61.3405 114.258 60.279 113.196 60.279 111.884C60.279 110.572 61.3405 109.511 62.6494 109.511C63.9614 109.511 65.0228 110.572 65.0228 111.884C65.0228 113.196 63.9614 114.258 62.6494 114.258Z" fill="#B5B7BF"/>
<path opacity="0.7" d="M82.7476 70.4534C81.4387 70.4534 80.3742 69.392 80.3742 68.08C80.3742 66.7679 81.4356 65.7065 82.7476 65.7065C84.0597 65.7065 85.121 66.7679 85.121 68.08C85.121 69.392 84.0566 70.4534 82.7476 70.4534Z" fill="#B5B7BF"/>
<path opacity="0.7" d="M2.3734 136.16C1.06446 136.16 7.62939e-06 135.099 7.62939e-06 133.787C7.62939e-06 132.475 1.06137 131.413 2.3734 131.413C3.68543 131.413 4.74678 132.478 4.74678 133.787C4.74678 135.096 3.68543 136.16 2.3734 136.16Z" fill="#B5B7BF"/>
<path opacity="0.7" d="M22.4716 136.16C21.1626 136.16 20.1013 135.099 20.1013 133.787C20.1013 132.475 21.1626 131.413 22.4716 131.413C23.7836 131.413 24.8449 132.475 24.8449 133.787C24.8449 135.099 23.7836 136.16 22.4716 136.16Z" fill="#B5B7BF"/>
<path opacity="0.7" d="M2.37338 70.4534C1.06444 70.4534 0.00308609 69.392 0.00308609 68.08C0.00308609 66.7679 1.06444 65.7065 2.37338 65.7065C3.68541 65.7065 4.74676 66.7679 4.74676 68.08C4.74676 69.392 3.68541 70.4534 2.37338 70.4534Z" fill="#B5B7BF"/>
<path opacity="0.7" d="M2.37338 92.3556C1.06444 92.3556 0.00308609 91.2942 0.00308609 89.9822C0.00308609 88.6733 1.06444 87.6088 2.37338 87.6088C3.68541 87.6088 4.74676 88.6702 4.74676 89.9822C4.74676 91.2942 3.68541 92.3556 2.37338 92.3556Z" fill="#B5B7BF"/>
<path opacity="0.7" d="M2.37338 114.258C1.06444 114.258 0.00308609 113.196 0.00308609 111.884C0.00308609 110.572 1.06444 109.511 2.37338 109.511C3.68541 109.511 4.74676 110.572 4.74676 111.884C4.74676 113.196 3.68541 114.258 2.37338 114.258Z" fill="#41B7A8"/>
<path opacity="0.7" d="M22.4716 70.4534C21.1626 70.4534 20.1013 69.392 20.1013 68.08C20.1013 66.7679 21.1626 65.7065 22.4716 65.7065C23.7836 65.7065 24.8449 66.7679 24.8449 68.08C24.8449 69.392 23.7836 70.4534 22.4716 70.4534Z" fill="#41B7A8"/>
<path opacity="0.7" d="M22.4716 92.3556C21.1626 92.3556 20.1013 91.2942 20.1013 89.9822C20.1013 88.6733 21.1626 87.6088 22.4716 87.6088C23.7836 87.6088 24.8449 88.6702 24.8449 89.9822C24.8449 91.2942 23.7836 92.3556 22.4716 92.3556Z" fill="#B5B7BF"/>
<path opacity="0.7" d="M22.4716 114.258C21.1626 114.258 20.1013 113.196 20.1013 111.884C20.1013 110.572 21.1626 109.511 22.4716 109.511C23.7836 109.511 24.8449 110.572 24.8449 111.884C24.8449 113.196 23.7836 114.258 22.4716 114.258Z" fill="#B5B7BF"/>
<path opacity="0.7" d="M82.7476 92.3556C81.4387 92.3556 80.3742 91.2942 80.3742 89.9822C80.3742 88.6702 81.4356 87.6088 82.7476 87.6088C84.0597 87.6088 85.121 88.6702 85.121 89.9822C85.121 91.2942 84.0566 92.3556 82.7476 92.3556Z" fill="#41B7A8"/>
<path opacity="0.7" d="M82.7476 114.258C81.4387 114.258 80.3742 113.196 80.3742 111.884C80.3742 110.572 81.4387 109.511 82.7476 109.511C84.0597 109.511 85.121 110.572 85.121 111.884C85.121 113.196 84.0566 114.258 82.7476 114.258Z" fill="#B5B7BF"/>
<path opacity="0.7" d="M102.843 70.4534C101.534 70.4534 100.469 69.392 100.469 68.08C100.469 66.7679 101.531 65.7065 102.843 65.7065C104.152 65.7065 105.216 66.7679 105.216 68.08C105.216 69.392 104.155 70.4534 102.843 70.4534Z" fill="#B5B7BF"/>
<path opacity="0.7" d="M102.843 92.3556C101.534 92.3556 100.469 91.2942 100.469 89.9822C100.469 88.6702 101.531 87.6088 102.843 87.6088C104.152 87.6088 105.216 88.6702 105.216 89.9822C105.216 91.2942 104.155 92.3556 102.843 92.3556Z" fill="#B5B7BF"/>
<path opacity="0.7" d="M102.843 114.258C101.534 114.258 100.469 113.196 100.469 111.884C100.469 110.572 101.531 109.511 102.843 109.511C104.152 109.511 105.216 110.572 105.216 111.884C105.216 113.196 104.155 114.258 102.843 114.258Z" fill="#B5B7BF"/>
<path opacity="0.7" d="M42.5513 4.74671C41.2424 4.74671 40.1809 3.68533 40.1809 2.3733C40.1809 1.06437 41.2424 -0.00012207 42.5513 -0.00012207C43.8633 -0.00012207 44.9247 1.06127 44.9247 2.3733C44.9247 3.68533 43.8633 4.74671 42.5513 4.74671Z" fill="#B5B7BF"/>
<path opacity="0.7" d="M42.5513 26.6489C41.2424 26.6489 40.1809 25.5875 40.1809 24.2755C40.1809 22.9635 41.2424 21.9021 42.5513 21.9021C43.8633 21.9021 44.9247 22.9635 44.9247 24.2755C44.9247 25.5875 43.8633 26.6489 42.5513 26.6489Z" fill="#B5B7BF"/>
<path opacity="0.7" d="M42.5513 48.5511C41.2424 48.5511 40.1809 47.4897 40.1809 46.1777C40.1809 44.8657 41.2424 43.8043 42.5513 43.8043C43.8633 43.8043 44.9247 44.8657 44.9247 46.1777C44.9247 47.4897 43.8633 48.5511 42.5513 48.5511Z" fill="#B5B7BF"/>
<path opacity="0.7" d="M62.6494 4.74671C61.3405 4.74671 60.279 3.68533 60.279 2.3733C60.279 1.06437 61.3405 -0.00012207 62.6494 -0.00012207C63.9614 -0.00012207 65.0228 1.06127 65.0228 2.3733C65.0228 3.68533 63.9614 4.74671 62.6494 4.74671Z" fill="#41B7A8"/>
<path opacity="0.7" d="M62.6494 26.6489C61.3405 26.6489 60.279 25.5875 60.279 24.2755C60.279 22.9635 61.3405 21.9021 62.6494 21.9021C63.9614 21.9021 65.0228 22.9635 65.0228 24.2755C65.0228 25.5875 63.9614 26.6489 62.6494 26.6489Z" fill="#B5B7BF"/>
<path opacity="0.7" d="M62.6494 48.5511C61.3405 48.5511 60.279 47.4897 60.279 46.1777C60.279 44.8657 61.3405 43.8043 62.6494 43.8043C63.9614 43.8043 65.0228 44.8657 65.0228 46.1777C65.0228 47.4897 63.9614 48.5511 62.6494 48.5511Z" fill="#B5B7BF"/>
<path opacity="0.7" d="M82.7476 4.74671C81.4387 4.74671 80.3742 3.68533 80.3742 2.3733C80.3742 1.06437 81.4356 -0.00012207 82.7476 -0.00012207C84.0597 -0.00012207 85.121 1.06127 85.121 2.3733C85.121 3.68533 84.0566 4.74671 82.7476 4.74671Z" fill="#B5B7BF"/>
<path opacity="0.7" d="M2.37249 4.74879C1.06355 4.74879 0.00219727 3.68741 0.00219727 2.37538C0.00219727 1.06644 1.06355 0.00195312 2.37249 0.00195312C3.68452 0.00195312 4.74588 1.06335 4.74588 2.37538C4.74588 3.68431 3.68452 4.74879 2.37249 4.74879Z" fill="#B5B7BF"/>
<path opacity="0.7" d="M2.37338 26.6489C1.06444 26.6489 0.00308609 25.5875 0.00308609 24.2755C0.00308609 22.9635 1.06444 21.9021 2.37338 21.9021C3.68541 21.9021 4.74676 22.9635 4.74676 24.2755C4.74676 25.5875 3.68541 26.6489 2.37338 26.6489Z" fill="#B5B7BF"/>
<path opacity="0.7" d="M2.37338 48.5511C1.06444 48.5511 0.00308609 47.4897 0.00308609 46.1777C0.00308609 44.8657 1.06444 43.8043 2.37338 43.8043C3.68541 43.8043 4.74676 44.8657 4.74676 46.1777C4.74676 47.4897 3.68541 48.5511 2.37338 48.5511Z" fill="#B5B7BF"/>
<path opacity="0.7" d="M22.4716 4.74671C21.1626 4.74671 20.1013 3.68533 20.1013 2.3733C20.1013 1.06437 21.1626 -0.00012207 22.4716 -0.00012207C23.7836 -0.00012207 24.8449 1.06127 24.8449 2.3733C24.8449 3.68533 23.7836 4.74671 22.4716 4.74671Z" fill="#B5B7BF"/>
<path opacity="0.7" d="M22.4716 26.6489C21.1626 26.6489 20.1013 25.5875 20.1013 24.2755C20.1013 22.9635 21.1626 21.9021 22.4716 21.9021C23.7836 21.9021 24.8449 22.9635 24.8449 24.2755C24.8449 25.5875 23.7836 26.6489 22.4716 26.6489Z" fill="#41B7A8"/>
<path opacity="0.7" d="M22.4716 48.5511C21.1626 48.5511 20.1013 47.4897 20.1013 46.1777C20.1013 44.8657 21.1626 43.8043 22.4716 43.8043C23.7836 43.8043 24.8449 44.8657 24.8449 46.1777C24.8449 47.4897 23.7836 48.5511 22.4716 48.5511Z" fill="#B5B7BF"/>
<path opacity="0.7" d="M82.7476 26.6489C81.4387 26.6489 80.3742 25.5875 80.3742 24.2755C80.3742 22.9635 81.4356 21.9021 82.7476 21.9021C84.0597 21.9021 85.121 22.9635 85.121 24.2755C85.121 25.5875 84.0566 26.6489 82.7476 26.6489Z" fill="#B5B7BF"/>
<path opacity="0.7" d="M82.7476 48.5511C81.4387 48.5511 80.3742 47.4897 80.3742 46.1777C80.3742 44.8657 81.4356 43.8043 82.7476 43.8043C84.0597 43.8043 85.121 44.8657 85.121 46.1777C85.121 47.4897 84.0566 48.5511 82.7476 48.5511Z" fill="#41B7A8"/>
<path opacity="0.7" d="M102.843 4.74671C101.534 4.74671 100.469 3.68533 100.469 2.3733C100.469 1.06437 101.531 -0.00012207 102.843 -0.00012207C104.155 -0.00012207 105.216 1.06127 105.216 2.3733C105.216 3.68533 104.155 4.74671 102.843 4.74671Z" fill="#B5B7BF"/>
<path opacity="0.7" d="M102.843 26.6489C101.534 26.6489 100.469 25.5875 100.469 24.2755C100.469 22.9635 101.531 21.9021 102.843 21.9021C104.155 21.9021 105.216 22.9635 105.216 24.2755C105.216 25.5875 104.155 26.6489 102.843 26.6489Z" fill="#41B7A8"/>
<path opacity="0.7" d="M102.843 48.5511C101.534 48.5511 100.469 47.4897 100.469 46.1777C100.469 44.8657 101.531 43.8043 102.843 43.8043C104.155 43.8043 105.216 44.8657 105.216 46.1777C105.216 47.4897 104.155 48.5511 102.843 48.5511Z" fill="#B5B7BF"/>
</svg>
