<svg width="92" height="20" viewBox="0 0 92 20" fill="none" xmlns="http://www.w3.org/2000/svg">
<path opacity="0.7" d="M39.0904 18.0899C39.0904 19.1445 38.2357 19.9992 37.181 19.9992C36.1264 19.9992 35.2716 19.1445 35.2716 18.0899C35.2716 17.0352 36.1264 16.1805 37.181 16.1805C38.2357 16.1805 39.0904 17.0352 39.0904 18.0899Z" fill="#B5B7BF"/>
<path opacity="0.7" d="M56.7262 18.0899C56.7262 19.1445 55.8715 19.9992 54.8168 19.9992C53.7622 19.9992 52.9075 19.1445 52.9075 18.0899C52.9075 17.0352 53.7622 16.1805 54.8168 16.1805C55.8715 16.1805 56.7262 17.0352 56.7262 18.0899Z" fill="#B5B7BF"/>
<path opacity="0.7" d="M74.3621 18.0899C74.3621 19.1445 73.5074 19.9992 72.4527 19.9992C71.3981 19.9992 70.5434 19.1445 70.5434 18.0899C70.5434 17.0352 71.3981 16.1805 72.4527 16.1805C73.5074 16.1805 74.3621 17.0352 74.3621 18.0899Z" fill="#B5B7BF"/>
<path opacity="0.7" d="M91.998 18.0899C91.998 19.1445 91.1432 19.9992 90.0886 19.9992C89.0339 19.9992 88.1792 19.1445 88.1792 18.0899C88.1792 17.0352 89.0339 16.1805 90.0886 16.1805C91.1432 16.1805 91.998 17.0352 91.998 18.0899Z" fill="#B5B7BF"/>
<path opacity="0.7" d="M39.0904 1.90853C39.0904 2.9632 38.2357 3.81791 37.181 3.81791C36.1264 3.81791 35.2716 2.9632 35.2716 1.90853C35.2716 0.85386 36.1264 -0.000854492 37.181 -0.000854492C38.2357 -0.000854492 39.0904 0.850635 39.0904 1.90853Z" fill="#B5B7BF"/>
<path opacity="0.7" d="M56.7262 1.90853C56.7262 2.9632 55.8715 3.81791 54.8168 3.81791C53.7622 3.81791 52.9075 2.9632 52.9075 1.90853C52.9075 0.85386 53.7622 -0.000854492 54.8168 -0.000854492C55.8715 -0.000854492 56.7262 0.850635 56.7262 1.90853Z" fill="#B5B7BF"/>
<path opacity="0.7" d="M74.3621 1.90853C74.3621 2.9632 73.5074 3.81791 72.4527 3.81791C71.3981 3.81791 70.5434 2.9632 70.5434 1.90853C70.5434 0.85386 71.3981 -0.000854492 72.4527 -0.000854492C73.5074 -0.000854492 74.3621 0.850635 74.3621 1.90853Z" fill="#B5B7BF"/>
<path opacity="0.7" d="M91.998 1.90853C91.998 2.9632 91.1432 3.81791 90.0886 3.81791C89.0339 3.81791 88.1792 2.9632 88.1792 1.90853C88.1792 0.85386 89.0339 -0.000854492 90.0886 -0.000854492C91.1432 -0.000854492 91.998 0.850635 91.998 1.90853Z" fill="#B5B7BF"/>
<path opacity="0.7" d="M3.81864 18.0899C3.81864 19.1445 2.96396 19.9992 1.90929 19.9992C0.854623 19.9992 -9.15527e-05 19.1445 -9.15527e-05 18.0899C-9.15527e-05 17.0352 0.854623 16.1805 1.90929 16.1805C2.96396 16.1805 3.81864 17.0352 3.81864 18.0899Z" fill="#B5B7BF"/>
<path opacity="0.7" d="M21.4545 18.0899C21.4545 19.1445 20.5998 19.9992 19.5451 19.9992C18.4905 19.9992 17.6358 19.1445 17.6358 18.0899C17.6358 17.0352 18.4905 16.1805 19.5451 16.1805C20.5998 16.1805 21.4545 17.0352 21.4545 18.0899Z" fill="#41B7A8"/>
<path opacity="0.7" d="M3.81873 1.90853C3.81873 2.9632 2.96405 3.81791 1.90938 3.81791C0.854715 3.81791 0 2.9632 0 1.90853C0 0.85386 0.854715 -0.000854492 1.90938 -0.000854492C2.96405 -0.000854492 3.81873 0.850635 3.81873 1.90853Z" fill="#B5B7BF"/>
<path opacity="0.7" d="M21.4545 1.90853C21.4545 2.9632 20.5998 3.81791 19.5451 3.81791C18.4905 3.81791 17.6358 2.9632 17.6358 1.90853C17.6358 0.85386 18.4905 -0.000854492 19.5451 -0.000854492C20.5998 -0.000854492 21.4545 0.850635 21.4545 1.90853Z" fill="#B5B7BF"/>
</svg>
