<svg width="20" height="92" viewBox="0 0 20 92" fill="none" xmlns="http://www.w3.org/2000/svg">
<path opacity="0.7" d="M18.0907 52.9076C19.1454 52.9076 20.0001 53.7623 20.0001 54.8169C20.0001 55.8716 19.1454 56.7263 18.0907 56.7263C17.0361 56.7263 16.1813 55.8716 16.1813 54.8169C16.1813 53.7623 17.0361 52.9076 18.0907 52.9076Z" fill="#B5B7BF"/>
<path opacity="0.7" d="M18.0907 35.2718C19.1454 35.2718 20.0001 36.1266 20.0001 37.1812C20.0001 38.2359 19.1454 39.0906 18.0907 39.0906C17.0361 39.0906 16.1813 38.2359 16.1813 37.1812C16.1813 36.1266 17.0361 35.2718 18.0907 35.2718Z" fill="#B5B7BF"/>
<path opacity="0.7" d="M18.0907 17.6359C19.1454 17.6359 20.0001 18.4905 20.0001 19.5452C20.0001 20.5999 19.1454 21.4546 18.0907 21.4546C17.0361 21.4546 16.1813 20.5999 16.1813 19.5452C16.1813 18.4905 17.0361 17.6359 18.0907 17.6359Z" fill="#B5B7BF"/>
<path opacity="0.7" d="M18.0907 0.00012064C19.1454 0.00012064 20.0001 0.854836 20.0001 1.9095C20.0001 2.96417 19.1454 3.81885 18.0907 3.81885C17.0361 3.81885 16.1813 2.96417 16.1813 1.9095C16.1813 0.854836 17.0361 0.00012064 18.0907 0.00012064Z" fill="#B5B7BF"/>
<path opacity="0.7" d="M1.90944 52.9076C2.96411 52.9076 3.81883 53.7623 3.81883 54.8169C3.81883 55.8716 2.96411 56.7263 1.90944 56.7263C0.854776 56.7263 6.10352e-05 55.8716 6.10352e-05 54.8169C6.10352e-05 53.7623 0.851551 52.9076 1.90944 52.9076Z" fill="#B5B7BF"/>
<path opacity="0.7" d="M1.90944 35.2718C2.96411 35.2718 3.81883 36.1266 3.81883 37.1812C3.81883 38.2359 2.96411 39.0906 1.90944 39.0906C0.854776 39.0906 6.10352e-05 38.2359 6.10352e-05 37.1812C6.10352e-05 36.1266 0.851551 35.2718 1.90944 35.2718Z" fill="#B5B7BF"/>
<path opacity="0.7" d="M1.90944 17.6359C2.96411 17.6359 3.81883 18.4905 3.81883 19.5452C3.81883 20.5999 2.96411 21.4546 1.90944 21.4546C0.854776 21.4546 6.10352e-05 20.5999 6.10352e-05 19.5452C6.10352e-05 18.4905 0.851551 17.6359 1.90944 17.6359Z" fill="#B5B7BF"/>
<path opacity="0.7" d="M1.90944 0.00012064C2.96411 0.00012064 3.81883 0.854836 3.81883 1.9095C3.81883 2.96417 2.96411 3.81885 1.90944 3.81885C0.854776 3.81885 6.10352e-05 2.96417 6.10352e-05 1.9095C6.10352e-05 0.854836 0.851551 0.00012064 1.90944 0.00012064Z" fill="#B5B7BF"/>
<path opacity="0.7" d="M18.0907 88.1793C19.1454 88.1793 20.0001 89.034 20.0001 90.0887C20.0001 91.1433 19.1454 91.998 18.0907 91.998C17.0361 91.998 16.1813 91.1433 16.1813 90.0887C16.1813 89.034 17.0361 88.1793 18.0907 88.1793Z" fill="#B5B7BF"/>
<path opacity="0.7" d="M18.0907 70.5436C19.1454 70.5436 20.0001 71.3983 20.0001 72.453C20.0001 73.5076 19.1454 74.3623 18.0907 74.3623C17.0361 74.3623 16.1813 73.5076 16.1813 72.453C16.1813 71.3983 17.0361 70.5436 18.0907 70.5436Z" fill="#B5B7BF"/>
<path opacity="0.7" d="M1.90938 88.1793C2.96405 88.1793 3.81877 89.034 3.81877 90.0887C3.81877 91.1433 2.96405 91.998 1.90938 91.998C0.854715 91.998 0 91.1433 0 90.0887C0 89.034 0.85149 88.1793 1.90938 88.1793Z" fill="#B5B7BF"/>
<path opacity="0.7" d="M1.90944 70.5436C2.96411 70.5436 3.81883 71.3983 3.81883 72.453C3.81883 73.5076 2.96411 74.3623 1.90944 74.3623C0.854776 74.3623 6.10352e-05 73.5076 6.10352e-05 72.453C6.10352e-05 71.3983 0.851551 70.5436 1.90944 70.5436Z" fill="#B5B7BF"/>
</svg>
