<svg width="202" height="102" viewBox="0 0 202 102" fill="none" xmlns="http://www.w3.org/2000/svg">
<path opacity="0.7" d="M65.7067 38.5481C65.7067 37.2391 66.7681 36.1777 68.0801 36.1777C69.3891 36.1777 70.4536 37.2391 70.4536 38.5481C70.4536 39.8601 69.3922 40.9215 68.0801 40.9215C66.7681 40.9215 65.7067 39.8601 65.7067 38.5481Z" fill="#B5B7BF"/>
<path opacity="0.7" d="M43.8045 38.5481C43.8045 37.2391 44.8659 36.1777 46.1779 36.1777C47.4868 36.1777 48.5513 37.2391 48.5513 38.5481C48.5513 39.8601 47.4899 40.9215 46.1779 40.9215C44.8659 40.9215 43.8045 39.8601 43.8045 38.5481Z" fill="#B5B7BF"/>
<path opacity="0.7" d="M21.9022 38.5481C21.9022 37.2391 22.9636 36.1777 24.2756 36.1777C25.5846 36.1777 26.6491 37.2391 26.6491 38.5481C26.6491 39.8601 25.5877 40.9215 24.2756 40.9215C22.9636 40.9215 21.9022 39.8601 21.9022 38.5481Z" fill="#41B7A8"/>
<path opacity="0.7" d="M0 38.5481C0 37.2391 1.0614 36.1777 2.37343 36.1777C3.68236 36.1777 4.74683 37.2391 4.74683 38.5481C4.74683 39.8601 3.68546 40.9215 2.37343 40.9215C1.0614 40.9215 0 39.8601 0 38.5481Z" fill="#B5B7BF"/>
<path opacity="0.7" d="M65.7067 58.6464C65.7067 57.3375 66.7681 56.2761 68.0801 56.2761C69.3891 56.2761 70.4536 57.3375 70.4536 58.6464C70.4536 59.9585 69.3922 61.0198 68.0801 61.0198C66.7681 61.0198 65.7067 59.9585 65.7067 58.6464Z" fill="#41B7A8"/>
<path opacity="0.7" d="M43.8045 58.6464C43.8045 57.3375 44.8659 56.2761 46.1779 56.2761C47.4868 56.2761 48.5513 57.3375 48.5513 58.6464C48.5513 59.9585 47.4899 61.0198 46.1779 61.0198C44.8659 61.0198 43.8045 59.9585 43.8045 58.6464Z" fill="#B5B7BF"/>
<path opacity="0.7" d="M21.9022 58.6464C21.9022 57.3375 22.9636 56.2761 24.2756 56.2761C25.5846 56.2761 26.6491 57.3375 26.6491 58.6464C26.6491 59.9585 25.5877 61.0198 24.2756 61.0198C22.9636 61.0198 21.9022 59.9585 21.9022 58.6464Z" fill="#B5B7BF"/>
<path opacity="0.7" d="M0 58.6464C0 57.3375 1.0614 56.2761 2.37343 56.2761C3.68236 56.2761 4.74683 57.3375 4.74683 58.6464C4.74683 59.9585 3.68546 61.0198 2.37343 61.0198C1.0614 61.0198 0 59.9585 0 58.6464Z" fill="#B5B7BF"/>
<path opacity="0.7" d="M65.7067 78.7445C65.7067 77.4356 66.7681 76.3711 68.0801 76.3711C69.3891 76.3711 70.4536 77.4325 70.4536 78.7445C70.4536 80.0565 69.3922 81.1179 68.0801 81.1179C66.7681 81.1179 65.7067 80.0534 65.7067 78.7445Z" fill="#41B7A8"/>
<path opacity="0.7" d="M43.8045 78.7445C43.8045 77.4356 44.8659 76.3711 46.1779 76.3711C47.4868 76.3711 48.5513 77.4325 48.5513 78.7445C48.5513 80.0565 47.4899 81.1179 46.1779 81.1179C44.8659 81.1179 43.8045 80.0534 43.8045 78.7445Z" fill="#B5B7BF"/>
<path opacity="0.7" d="M21.9022 78.7445C21.9022 77.4356 22.9636 76.3711 24.2756 76.3711C25.5846 76.3711 26.6491 77.4325 26.6491 78.7445C26.6491 80.0565 25.5877 81.1179 24.2756 81.1179C22.9636 81.1179 21.9022 80.0534 21.9022 78.7445Z" fill="#B5B7BF"/>
<path opacity="0.7" d="M0 78.7445C0 77.4356 1.0614 76.3711 2.37343 76.3711C3.68236 76.3711 4.74683 77.4325 4.74683 78.7445C4.74683 80.0565 3.68546 81.1179 2.37343 81.1179C1.0614 81.1179 0 80.0534 0 78.7445Z" fill="#41B7A8"/>
<path opacity="0.7" d="M65.7067 98.8395C65.7067 97.5306 66.7681 96.4661 68.0801 96.4661C69.3891 96.4661 70.4536 97.5275 70.4536 98.8395C70.4536 100.148 69.3922 101.213 68.0801 101.213C66.7681 101.213 65.7067 100.152 65.7067 98.8395Z" fill="#B5B7BF"/>
<path opacity="0.7" d="M43.8045 98.8395C43.8045 97.5306 44.8659 96.4661 46.1779 96.4661C47.4868 96.4661 48.5513 97.5275 48.5513 98.8395C48.5513 100.148 47.4899 101.213 46.1779 101.213C44.8659 101.213 43.8045 100.152 43.8045 98.8395Z" fill="#B5B7BF"/>
<path opacity="0.7" d="M21.9022 98.8395C21.9022 97.5306 22.9636 96.4661 24.2756 96.4661C25.5846 96.4661 26.6491 97.5275 26.6491 98.8395C26.6491 100.148 25.5877 101.213 24.2756 101.213C22.9636 101.213 21.9022 100.152 21.9022 98.8395Z" fill="#B5B7BF"/>
<path opacity="0.7" d="M0 98.8395C0 97.5306 1.0614 96.4661 2.37343 96.4661C3.68236 96.4661 4.74683 97.5275 4.74683 98.8395C4.74683 100.148 3.68546 101.213 2.37343 101.213C1.0614 101.213 0 100.152 0 98.8395Z" fill="#B5B7BF"/>
<path opacity="0.7" d="M131.413 38.5481C131.413 37.2391 132.475 36.1777 133.787 36.1777C135.099 36.1777 136.16 37.2391 136.16 38.5481C136.16 39.8601 135.099 40.9215 133.787 40.9215C132.475 40.9215 131.413 39.8601 131.413 38.5481Z" fill="#B5B7BF"/>
<path opacity="0.7" d="M109.511 38.5481C109.511 37.2391 110.573 36.1777 111.885 36.1777C113.194 36.1777 114.258 37.2391 114.258 38.5481C114.258 39.8601 113.197 40.9215 111.885 40.9215C110.573 40.9215 109.511 39.8601 109.511 38.5481Z" fill="#41B7A8"/>
<path opacity="0.7" d="M87.6089 38.5481C87.6089 37.2391 88.6703 36.1777 89.9824 36.1777C91.2913 36.1777 92.3558 37.2391 92.3558 38.5481C92.3558 39.8601 91.2944 40.9215 89.9824 40.9215C88.6703 40.9215 87.6089 39.8601 87.6089 38.5481Z" fill="#B5B7BF"/>
<path opacity="0.7" d="M131.413 58.6464C131.413 57.3375 132.475 56.2761 133.787 56.2761C135.099 56.2761 136.16 57.3375 136.16 58.6464C136.16 59.9585 135.099 61.0198 133.787 61.0198C132.475 61.0198 131.413 59.9585 131.413 58.6464Z" fill="#B5B7BF"/>
<path opacity="0.7" d="M109.511 58.6464C109.511 57.3375 110.573 56.2761 111.885 56.2761C113.194 56.2761 114.258 57.3375 114.258 58.6464C114.258 59.9585 113.197 61.0198 111.885 61.0198C110.573 61.0198 109.511 59.9585 109.511 58.6464Z" fill="#B5B7BF"/>
<path opacity="0.7" d="M87.6089 58.6464C87.6089 57.3375 88.6703 56.2761 89.9824 56.2761C91.2913 56.2761 92.3558 57.3375 92.3558 58.6464C92.3558 59.9585 91.2944 61.0198 89.9824 61.0198C88.6703 61.0198 87.6089 59.9585 87.6089 58.6464Z" fill="#B5B7BF"/>
<path opacity="0.7" d="M131.413 78.7445C131.413 77.4356 132.475 76.3711 133.787 76.3711C135.099 76.3711 136.16 77.4325 136.16 78.7445C136.16 80.0565 135.099 81.1179 133.787 81.1179C132.475 81.1179 131.413 80.0534 131.413 78.7445Z" fill="#B5B7BF"/>
<path opacity="0.7" d="M65.7067 -1.62968C65.7067 -2.93862 66.7681 -4 68.0801 -4C69.3891 -4 70.4536 -2.93862 70.4536 -1.62968C70.4536 -0.317651 69.3891 0.743731 68.0801 0.743731C66.7681 0.743731 65.7067 -0.317651 65.7067 -1.62968Z" fill="#B5B7BF"/>
<path opacity="0.7" d="M43.8045 -1.62968C43.8045 -2.93862 44.8659 -4 46.1779 -4C47.4868 -4 48.5513 -2.93862 48.5513 -1.62968C48.5513 -0.317651 47.4899 0.743731 46.1779 0.743731C44.8659 0.743731 43.8045 -0.317651 43.8045 -1.62968Z" fill="#B5B7BF"/>
<path opacity="0.7" d="M21.9022 -1.62968C21.9022 -2.93862 22.9636 -4 24.2756 -4C25.5846 -4 26.6491 -2.93862 26.6491 -1.62968C26.6491 -0.317651 25.5877 0.743731 24.2756 0.743731C22.9636 0.743731 21.9022 -0.317651 21.9022 -1.62968Z" fill="#B5B7BF"/>
<path opacity="0.7" d="M3.05176e-05 -1.62968C3.05176e-05 -2.93862 1.06143 -4 2.37346 -4C3.68239 -4 4.74686 -2.93862 4.74686 -1.62968C4.74686 -0.317651 3.68549 0.743731 2.37346 0.743731C1.06143 0.743731 3.05176e-05 -0.317651 3.05176e-05 -1.62968Z" fill="#B5B7BF"/>
<path opacity="0.7" d="M65.7067 18.4685C65.7067 17.1595 66.7681 16.0981 68.0801 16.0981C69.3891 16.0981 70.4536 17.1595 70.4536 18.4685C70.4536 19.7805 69.3922 20.8419 68.0801 20.8419C66.7681 20.8419 65.7067 19.7805 65.7067 18.4685Z" fill="#B5B7BF"/>
<path opacity="0.7" d="M43.8045 18.4685C43.8045 17.1595 44.8659 16.0981 46.1779 16.0981C47.4868 16.0981 48.5513 17.1595 48.5513 18.4685C48.5513 19.7805 47.4899 20.8419 46.1779 20.8419C44.8659 20.8419 43.8045 19.7805 43.8045 18.4685Z" fill="#B5B7BF"/>
<path opacity="0.7" d="M21.9022 18.4685C21.9022 17.1595 22.9636 16.0981 24.2756 16.0981C25.5846 16.0981 26.6491 17.1595 26.6491 18.4685C26.6491 19.7805 25.5877 20.8419 24.2756 20.8419C22.9636 20.8419 21.9022 19.7805 21.9022 18.4685Z" fill="#B5B7BF"/>
<path opacity="0.7" d="M0 18.4685C0 17.1595 1.0614 16.0981 2.37343 16.0981C3.68236 16.0981 4.74683 17.1595 4.74683 18.4685C4.74683 19.7805 3.68546 20.8419 2.37343 20.8419C1.0614 20.8419 0 19.7805 0 18.4685Z" fill="#B5B7BF"/>
<path opacity="0.7" d="M131.413 -1.62968C131.413 -2.93862 132.475 -4 133.787 -4C135.099 -4 136.16 -2.93862 136.16 -1.62968C136.16 -0.317651 135.099 0.743731 133.787 0.743731C132.475 0.743731 131.413 -0.317651 131.413 -1.62968Z" fill="#B5B7BF"/>
<path opacity="0.7" d="M109.511 -1.62968C109.511 -2.93862 110.573 -4 111.885 -4C113.194 -4 114.258 -2.93862 114.258 -1.62968C114.258 -0.317651 113.197 0.743731 111.885 0.743731C110.573 0.743731 109.511 -0.317651 109.511 -1.62968Z" fill="#B5B7BF"/>
<path opacity="0.7" d="M87.6089 -1.62968C87.6089 -2.93862 88.6703 -4 89.9824 -4C91.2913 -4 92.3558 -2.93862 92.3558 -1.62968C92.3558 -0.317651 91.2944 0.743731 89.9824 0.743731C88.6703 0.743731 87.6089 -0.317651 87.6089 -1.62968Z" fill="#B5B7BF"/>
<path opacity="0.7" d="M131.413 18.4685C131.413 17.1595 132.475 16.0981 133.787 16.0981C135.099 16.0981 136.16 17.1595 136.16 18.4685C136.16 19.7805 135.099 20.8419 133.787 20.8419C132.475 20.8419 131.413 19.7805 131.413 18.4685Z" fill="#41B7A8"/>
<path opacity="0.7" d="M109.511 18.4685C109.511 17.1595 110.573 16.0981 111.885 16.0981C113.194 16.0981 114.258 17.1595 114.258 18.4685C114.258 19.7805 113.197 20.8419 111.885 20.8419C110.573 20.8419 109.511 19.7805 109.511 18.4685Z" fill="#B5B7BF"/>
<path opacity="0.7" d="M87.6089 18.4685C87.6089 17.1595 88.6703 16.0981 89.9824 16.0981C91.2913 16.0981 92.3558 17.1595 92.3558 18.4685C92.3558 19.7805 91.2944 20.8419 89.9824 20.8419C88.6703 20.8419 87.6089 19.7805 87.6089 18.4685Z" fill="#B5B7BF"/>
<path opacity="0.7" d="M109.511 78.7445C109.511 77.4356 110.573 76.3711 111.885 76.3711C113.197 76.3711 114.258 77.4325 114.258 78.7445C114.258 80.0565 113.197 81.1179 111.885 81.1179C110.573 81.1179 109.511 80.0534 109.511 78.7445Z" fill="#B5B7BF"/>
<path opacity="0.7" d="M87.6089 78.7445C87.6089 77.4356 88.6703 76.3711 89.9824 76.3711C91.2913 76.3711 92.3558 77.4325 92.3558 78.7445C92.3558 80.0565 91.2944 81.1179 89.9824 81.1179C88.6703 81.1179 87.6089 80.0534 87.6089 78.7445Z" fill="#41B7A8"/>
<path opacity="0.7" d="M131.413 98.8395C131.413 97.5306 132.475 96.4661 133.787 96.4661C135.099 96.4661 136.16 97.5275 136.16 98.8395C136.16 100.148 135.099 101.213 133.787 101.213C132.475 101.213 131.413 100.152 131.413 98.8395Z" fill="#B5B7BF"/>
<path opacity="0.7" d="M109.511 98.8395C109.511 97.5306 110.573 96.4661 111.885 96.4661C113.197 96.4661 114.258 97.5275 114.258 98.8395C114.258 100.148 113.197 101.213 111.885 101.213C110.573 101.213 109.511 100.152 109.511 98.8395Z" fill="#B5B7BF"/>
<path opacity="0.7" d="M87.6089 98.8395C87.6089 97.5306 88.6703 96.4661 89.9824 96.4661C91.2913 96.4661 92.3558 97.5275 92.3558 98.8395C92.3558 100.148 91.2944 101.213 89.9824 101.213C88.6703 101.213 87.6089 100.152 87.6089 98.8395Z" fill="#B5B7BF"/>
<path opacity="0.7" d="M197.117 38.5481C197.117 37.2391 198.178 36.1777 199.49 36.1777C200.799 36.1777 201.864 37.2391 201.864 38.5481C201.864 39.8601 200.802 40.9215 199.49 40.9215C198.181 40.9215 197.117 39.8601 197.117 38.5481Z" fill="#B5B7BF"/>
<path opacity="0.7" d="M175.218 38.5481C175.218 37.2391 176.279 36.1777 177.591 36.1777C178.903 36.1777 179.965 37.2391 179.965 38.5481C179.965 39.8601 178.903 40.9215 177.591 40.9215C176.279 40.9215 175.218 39.8601 175.218 38.5481Z" fill="#41B7A8"/>
<path opacity="0.7" d="M153.316 38.5481C153.316 37.2391 154.377 36.1777 155.689 36.1777C157.001 36.1777 158.062 37.2391 158.062 38.5481C158.062 39.8601 157.001 40.9215 155.689 40.9215C154.377 40.9215 153.316 39.8601 153.316 38.5481Z" fill="#B5B7BF"/>
<path opacity="0.7" d="M197.117 58.6464C197.117 57.3375 198.178 56.2761 199.49 56.2761C200.799 56.2761 201.864 57.3375 201.864 58.6464C201.864 59.9585 200.802 61.0198 199.49 61.0198C198.181 61.0198 197.117 59.9585 197.117 58.6464Z" fill="#B5B7BF"/>
<path opacity="0.7" d="M175.218 58.6464C175.218 57.3375 176.279 56.2761 177.591 56.2761C178.903 56.2761 179.965 57.3375 179.965 58.6464C179.965 59.9585 178.903 61.0198 177.591 61.0198C176.279 61.0198 175.218 59.9585 175.218 58.6464Z" fill="#B5B7BF"/>
<path opacity="0.7" d="M153.316 58.6464C153.316 57.3375 154.377 56.2761 155.689 56.2761C157.001 56.2761 158.062 57.3375 158.062 58.6464C158.062 59.9585 157.001 61.0198 155.689 61.0198C154.377 61.0198 153.316 59.9585 153.316 58.6464Z" fill="#B5B7BF"/>
<path opacity="0.7" d="M197.117 78.7445C197.117 77.4356 198.178 76.3711 199.49 76.3711C200.799 76.3711 201.864 77.4325 201.864 78.7445C201.864 80.0565 200.802 81.1179 199.49 81.1179C198.181 81.1179 197.117 80.0534 197.117 78.7445Z" fill="#41B7A8"/>
<path opacity="0.7" d="M197.117 -1.62968C197.117 -2.93862 198.178 -4 199.49 -4C200.799 -4 201.864 -2.93862 201.864 -1.62968C201.864 -0.317651 200.802 0.743731 199.49 0.743731C198.181 0.743731 197.117 -0.317651 197.117 -1.62968Z" fill="#B5B7BF"/>
<path opacity="0.7" d="M175.218 -1.62968C175.218 -2.93862 176.279 -4 177.591 -4C178.903 -4 179.965 -2.93862 179.965 -1.62968C179.965 -0.317651 178.903 0.743731 177.591 0.743731C176.279 0.743731 175.218 -0.317651 175.218 -1.62968Z" fill="#B5B7BF"/>
<path opacity="0.7" d="M153.316 -1.62968C153.316 -2.93862 154.377 -4 155.689 -4C157.001 -4 158.062 -2.93862 158.062 -1.62968C158.062 -0.317651 157.001 0.743731 155.689 0.743731C154.377 0.743731 153.316 -0.317651 153.316 -1.62968Z" fill="#B5B7BF"/>
<path opacity="0.7" d="M197.117 18.4685C197.117 17.1595 198.178 16.0981 199.49 16.0981C200.799 16.0981 201.864 17.1595 201.864 18.4685C201.864 19.7805 200.802 20.8419 199.49 20.8419C198.181 20.8419 197.117 19.7805 197.117 18.4685Z" fill="#B5B7BF"/>
<path opacity="0.7" d="M175.218 18.4685C175.218 17.1595 176.279 16.0981 177.591 16.0981C178.903 16.0981 179.965 17.1595 179.965 18.4685C179.965 19.7805 178.903 20.8419 177.591 20.8419C176.279 20.8419 175.218 19.7805 175.218 18.4685Z" fill="#B5B7BF"/>
<path opacity="0.7" d="M153.316 18.4685C153.316 17.1595 154.377 16.0981 155.689 16.0981C157.001 16.0981 158.062 17.1595 158.062 18.4685C158.062 19.7805 157.001 20.8419 155.689 20.8419C154.377 20.8419 153.316 19.7805 153.316 18.4685Z" fill="#B5B7BF"/>
<path opacity="0.7" d="M175.218 78.7445C175.218 77.4356 176.279 76.3711 177.591 76.3711C178.903 76.3711 179.965 77.4325 179.965 78.7445C179.965 80.0565 178.903 81.1179 177.591 81.1179C176.279 81.1179 175.218 80.0534 175.218 78.7445Z" fill="#B5B7BF"/>
<path opacity="0.7" d="M153.316 78.7445C153.316 77.4356 154.377 76.3711 155.689 76.3711C157.001 76.3711 158.062 77.4325 158.062 78.7445C158.062 80.0565 157.001 81.1179 155.689 81.1179C154.377 81.1179 153.316 80.0534 153.316 78.7445Z" fill="#B5B7BF"/>
<path opacity="0.7" d="M197.117 98.8395C197.117 97.5306 198.178 96.4661 199.49 96.4661C200.799 96.4661 201.864 97.5275 201.864 98.8395C201.864 100.148 200.802 101.213 199.49 101.213C198.181 101.213 197.117 100.152 197.117 98.8395Z" fill="#B5B7BF"/>
<path opacity="0.7" d="M175.218 98.8395C175.218 97.5306 176.279 96.4661 177.591 96.4661C178.903 96.4661 179.965 97.5275 179.965 98.8395C179.965 100.148 178.903 101.213 177.591 101.213C176.279 101.213 175.218 100.152 175.218 98.8395Z" fill="#B5B7BF"/>
<path opacity="0.7" d="M153.316 98.8395C153.316 97.5306 154.377 96.4661 155.689 96.4661C157.001 96.4661 158.062 97.5275 158.062 98.8395C158.062 100.148 157.001 101.213 155.689 101.213C154.377 101.213 153.316 100.152 153.316 98.8395Z" fill="#41B7A8"/>
</svg>
