<svg width="52" height="90" viewBox="0 0 52 90" fill="none" xmlns="http://www.w3.org/2000/svg">
<path d="M2.50801 5.01599C3.89316 5.01599 5.016 3.89316 5.016 2.50801C5.016 1.12285 3.89316 0 2.50801 0C1.12285 0 6.79916e-06 1.12285 6.79916e-06 2.50801C6.79916e-06 3.89316 1.12285 5.01599 2.50801 5.01599ZM25.6622 26.2636C27.0473 26.2636 28.1702 25.1407 28.1702 23.7556C28.1702 22.3704 27.0473 21.2476 25.6622 21.2476C24.277 21.2476 23.1542 22.3704 23.1542 23.7556C23.1542 25.1407 24.2738 26.2636 25.6622 26.2636ZM2.50801 26.2636C3.89316 26.2636 5.016 25.1407 5.016 23.7556C5.016 22.3704 3.89316 21.2476 2.50801 21.2476C1.12285 21.2476 6.79916e-06 22.3704 6.79916e-06 23.7556C6.79916e-06 25.1407 1.12285 26.2636 2.50801 26.2636ZM48.8164 47.508C50.2015 47.508 51.3244 46.3851 51.3244 45C51.3244 43.6148 50.2015 42.492 48.8164 42.492C47.4312 42.492 46.3084 43.6148 46.3084 45C46.3084 46.3851 47.4312 47.508 48.8164 47.508ZM25.6622 47.508C27.0473 47.508 28.1702 46.3851 28.1702 45C28.1702 43.6148 27.0473 42.492 25.6622 42.492C24.277 42.492 23.1542 43.6148 23.1542 45C23.1542 46.3851 24.277 47.508 25.6622 47.508ZM2.50801 47.508C3.89316 47.508 5.016 46.3851 5.016 45C5.016 43.6148 3.89316 42.492 2.50801 42.492C1.12285 42.492 6.79916e-06 43.6148 6.79916e-06 45C-0.00319218 46.3851 1.12285 47.508 2.50801 47.508ZM25.659 68.7556C27.0442 68.7556 28.167 67.6328 28.167 66.2476C28.167 64.8624 27.0442 63.7396 25.659 63.7396C24.2738 63.7396 23.151 64.8624 23.151 66.2476C23.1542 67.6328 24.277 68.7556 25.659 68.7556ZM2.50801 68.7556C3.89316 68.7556 5.016 67.6328 5.016 66.2476C5.016 64.8624 3.89316 63.7396 2.50801 63.7396C1.12285 63.7396 6.79916e-06 64.8624 6.79916e-06 66.2476C-0.00319218 67.6328 1.12285 68.7556 2.50801 68.7556ZM2.50801 90C3.89316 90 5.016 88.8772 5.016 87.492C5.016 86.1069 3.89316 84.984 2.50801 84.984C1.12285 84.984 6.79916e-06 86.1069 6.79916e-06 87.492C-0.00319218 88.8772 1.12285 90 2.50801 90Z" fill="#41B7A8"/>
</svg>
