<svg width="129" height="228" viewBox="0 0 129 228" fill="none" xmlns="http://www.w3.org/2000/svg">
<path opacity="0.7" d="M51.8608 153.223C50.5519 153.223 49.4905 152.162 49.4905 150.85C49.4905 149.538 50.5519 148.477 51.8608 148.477C53.1729 148.477 54.2342 149.538 54.2342 150.85C54.2342 152.162 53.1729 153.223 51.8608 153.223Z" fill="#B5B7BF"/>
<path opacity="0.7" d="M51.8608 202.716C50.5519 202.716 49.4905 201.654 49.4905 200.342C49.4905 199.033 50.5519 197.969 51.8608 197.969C53.1729 197.969 54.2342 199.03 54.2342 200.342C54.2342 201.651 53.1729 202.716 51.8608 202.716Z" fill="#B5B7BF"/>
<path opacity="0.7" d="M51.8608 227.462C50.5519 227.462 49.4905 226.4 49.4905 225.088C49.4905 223.779 50.5519 222.715 51.8608 222.715C53.1729 222.715 54.2342 223.776 54.2342 225.088C54.2342 226.397 53.1729 227.462 51.8608 227.462Z" fill="#41B7A8"/>
<path opacity="0.7" d="M76.6046 153.223C75.2956 153.223 74.2342 152.162 74.2342 150.85C74.2342 149.538 75.2956 148.477 76.6046 148.477C77.9166 148.477 78.9779 149.538 78.9779 150.85C78.9779 152.162 77.9166 153.223 76.6046 153.223Z" fill="#B5B7BF"/>
<path opacity="0.7" d="M76.6046 177.969C75.2956 177.969 74.2342 176.908 74.2342 175.596C74.2342 174.287 75.2956 173.223 76.6046 173.223C77.9166 173.223 78.9779 174.284 78.9779 175.596C78.9779 176.905 77.9166 177.969 76.6046 177.969Z" fill="#B5B7BF"/>
<path opacity="0.7" d="M76.6046 202.716C75.2956 202.716 74.2342 201.654 74.2342 200.342C74.2342 199.033 75.2956 197.969 76.6046 197.969C77.9166 197.969 78.9779 199.03 78.9779 200.342C78.9779 201.651 77.9166 202.716 76.6046 202.716Z" fill="#41B7A8"/>
<path opacity="0.7" d="M76.6046 227.462C75.2956 227.462 74.2342 226.4 74.2342 225.088C74.2342 223.779 75.2956 222.715 76.6046 222.715C77.9166 222.715 78.9779 223.776 78.9779 225.088C78.9779 226.397 77.9166 227.462 76.6046 227.462Z" fill="#B5B7BF"/>
<path opacity="0.7" d="M101.351 153.223C100.042 153.223 98.9779 152.162 98.9779 150.85C98.9779 149.538 100.042 148.477 101.351 148.477C102.663 148.477 103.725 149.538 103.725 150.85C103.725 152.162 102.66 153.223 101.351 153.223Z" fill="#41B7A8"/>
<path opacity="0.7" d="M101.351 177.969C100.042 177.969 98.9779 176.908 98.9779 175.596C98.9779 174.287 100.042 173.223 101.351 173.223C102.663 173.223 103.725 174.284 103.725 175.596C103.725 176.905 102.66 177.969 101.351 177.969Z" fill="#B5B7BF"/>
<path opacity="0.7" d="M101.351 202.716C100.042 202.716 98.9779 201.654 98.9779 200.342C98.9779 199.033 100.042 197.969 101.351 197.969C102.663 197.969 103.725 199.03 103.725 200.342C103.725 201.651 102.66 202.716 101.351 202.716Z" fill="#41B7A8"/>
<path opacity="0.7" d="M101.351 227.462C100.042 227.462 98.9779 226.4 98.9779 225.088C98.9779 223.779 100.042 222.715 101.351 222.715C102.663 222.715 103.725 223.776 103.725 225.088C103.725 226.397 102.66 227.462 101.351 227.462Z" fill="#B5B7BF"/>
<path opacity="0.7" d="M126.098 153.223C124.789 153.223 123.725 152.162 123.725 150.85C123.725 149.538 124.786 148.477 126.098 148.477C127.407 148.477 128.472 149.538 128.472 150.85C128.472 152.162 127.41 153.223 126.098 153.223Z" fill="#B5B7BF"/>
<path opacity="0.7" d="M126.098 177.969C124.789 177.969 123.725 176.908 123.725 175.596C123.725 174.287 124.786 173.223 126.098 173.223C127.407 173.223 128.472 174.284 128.472 175.596C128.472 176.905 127.41 177.969 126.098 177.969Z" fill="#B5B7BF"/>
<path opacity="0.7" d="M126.098 202.716C124.789 202.716 123.725 201.654 123.725 200.342C123.725 199.033 124.786 197.969 126.098 197.969C127.407 197.969 128.472 199.03 128.472 200.342C128.472 201.651 127.41 202.716 126.098 202.716Z" fill="#B5B7BF"/>
<path opacity="0.7" d="M126.098 227.462C124.789 227.462 123.725 226.4 123.725 225.088C123.725 223.779 124.786 222.715 126.098 222.715C127.407 222.715 128.472 223.776 128.472 225.088C128.472 226.397 127.41 227.462 126.098 227.462Z" fill="#B5B7BF"/>
<path opacity="0.7" d="M51.8608 78.9851C50.5519 78.9851 49.4905 77.9237 49.4905 76.6117C49.4905 75.2997 50.5519 74.2383 51.8608 74.2383C53.1729 74.2383 54.2342 75.2997 54.2342 76.6117C54.2342 77.9237 53.1729 78.9851 51.8608 78.9851Z" fill="#B5B7BF"/>
<path opacity="0.7" d="M51.8608 103.731C50.5519 103.731 49.4905 102.67 49.4905 101.358C49.4905 100.049 50.5519 98.9844 51.8608 98.9844C53.1729 98.9844 54.2342 100.046 54.2342 101.358C54.2342 102.67 53.1729 103.731 51.8608 103.731Z" fill="#41B7A8"/>
<path opacity="0.7" d="M51.8608 128.477C50.5519 128.477 49.4905 127.416 49.4905 126.104C49.4905 124.792 50.5519 123.73 51.8608 123.73C53.1729 123.73 54.2342 124.792 54.2342 126.104C54.2342 127.416 53.1729 128.477 51.8608 128.477Z" fill="#B5B7BF"/>
<path opacity="0.7" d="M76.6046 78.9851C75.2956 78.9851 74.2342 77.9237 74.2342 76.6117C74.2342 75.2997 75.2956 74.2383 76.6046 74.2383C77.9166 74.2383 78.9779 75.2997 78.9779 76.6117C78.9779 77.9237 77.9166 78.9851 76.6046 78.9851Z" fill="#41B7A8"/>
<path opacity="0.7" d="M76.6046 103.731C75.2956 103.731 74.2342 102.67 74.2342 101.358C74.2342 100.049 75.2956 98.9844 76.6046 98.9844C77.9166 98.9844 78.9779 100.046 78.9779 101.358C78.9779 102.67 77.9166 103.731 76.6046 103.731Z" fill="#B5B7BF"/>
<path opacity="0.7" d="M76.6046 128.477C75.2956 128.477 74.2342 127.416 74.2342 126.104C74.2342 124.792 75.2956 123.73 76.6046 123.73C77.9166 123.73 78.9779 124.792 78.9779 126.104C78.9779 127.416 77.9166 128.477 76.6046 128.477Z" fill="#B5B7BF"/>
<path opacity="0.7" d="M101.351 78.9851C100.042 78.9851 98.9779 77.9237 98.9779 76.6117C98.9779 75.2997 100.039 74.2383 101.351 74.2383C102.663 74.2383 103.725 75.2997 103.725 76.6117C103.725 77.9237 102.66 78.9851 101.351 78.9851Z" fill="#B5B7BF"/>
<path opacity="0.7" d="M2.37339 153.227C1.06445 153.227 0 152.166 0 150.854C0 149.542 1.06136 148.48 2.37339 148.48C3.68542 148.48 4.74678 149.545 4.74678 150.854C4.74678 152.163 3.68542 153.227 2.37339 153.227Z" fill="#41B7A8"/>
<path opacity="0.7" d="M2.37339 177.973C1.06445 177.973 0 176.912 0 175.6C0 174.291 1.06136 173.227 2.37339 173.227C3.68542 173.227 4.74678 174.288 4.74678 175.6C4.74678 176.909 3.68542 177.973 2.37339 177.973Z" fill="#41B7A8"/>
<path opacity="0.7" d="M2.37339 202.72C1.06445 202.72 0 201.658 0 200.346C0 199.037 1.06136 197.973 2.37339 197.973C3.68542 197.973 4.74678 199.034 4.74678 200.346C4.74678 201.655 3.68542 202.72 2.37339 202.72Z" fill="#B5B7BF"/>
<path opacity="0.7" d="M27.1171 153.223C25.8081 153.223 24.7468 152.162 24.7468 150.85C24.7468 149.538 25.8081 148.477 27.1171 148.477C28.4291 148.477 29.4904 149.538 29.4904 150.85C29.4904 152.162 28.4291 153.223 27.1171 153.223Z" fill="#B5B7BF"/>
<path opacity="0.7" d="M27.1171 177.969C25.8081 177.969 24.7468 176.908 24.7468 175.596C24.7468 174.287 25.8081 173.223 27.1171 173.223C28.4291 173.223 29.4904 174.284 29.4904 175.596C29.4904 176.905 28.4291 177.969 27.1171 177.969Z" fill="#41B7A8"/>
<path opacity="0.7" d="M27.1171 202.716C25.8081 202.716 24.7468 201.654 24.7468 200.342C24.7468 199.033 25.8081 197.969 27.1171 197.969C28.4291 197.969 29.4904 199.03 29.4904 200.342C29.4904 201.651 28.4291 202.716 27.1171 202.716Z" fill="#B5B7BF"/>
<path opacity="0.7" d="M27.1171 227.462C25.8081 227.462 24.7468 226.4 24.7468 225.088C24.7468 223.779 25.8081 222.715 27.1171 222.715C28.4291 222.715 29.4904 223.776 29.4904 225.088C29.4904 226.397 28.4291 227.462 27.1171 227.462Z" fill="#B5B7BF"/>
<path opacity="0.7" d="M2.37334 78.989C1.06441 78.989 0.00305176 77.9276 0.00305176 76.6156C0.00305176 75.3036 1.06441 74.2422 2.37334 74.2422C3.68537 74.2422 4.74673 75.3036 4.74673 76.6156C4.74673 77.9276 3.68537 78.989 2.37334 78.989Z" fill="#41B7A8"/>
<path opacity="0.7" d="M2.37334 103.735C1.06441 103.735 0.00305176 102.674 0.00305176 101.362C0.00305176 100.053 1.06441 98.9883 2.37334 98.9883C3.68537 98.9883 4.74673 100.05 4.74673 101.362C4.74673 102.674 3.68537 103.735 2.37334 103.735Z" fill="#B5B7BF"/>
<path opacity="0.7" d="M2.37334 128.481C1.06441 128.481 0.00305176 127.42 0.00305176 126.108C0.00305176 124.796 1.06441 123.734 2.37334 123.734C3.68537 123.734 4.74673 124.796 4.74673 126.108C4.74673 127.42 3.68537 128.481 2.37334 128.481Z" fill="#B5B7BF"/>
<path opacity="0.7" d="M27.1171 78.9851C25.8081 78.9851 24.7468 77.9237 24.7468 76.6117C24.7468 75.2997 25.8081 74.2383 27.1171 74.2383C28.4291 74.2383 29.4904 75.2997 29.4904 76.6117C29.4904 77.9237 28.4291 78.9851 27.1171 78.9851Z" fill="#B5B7BF"/>
<path opacity="0.7" d="M101.351 103.731C100.042 103.731 98.9779 102.67 98.9779 101.358C98.9779 100.046 100.039 98.9844 101.351 98.9844C102.663 98.9844 103.725 100.046 103.725 101.358C103.725 102.67 102.66 103.731 101.351 103.731Z" fill="#B5B7BF"/>
<path opacity="0.7" d="M101.351 128.477C100.042 128.477 98.9779 127.416 98.9779 126.104C98.9779 124.792 100.042 123.73 101.351 123.73C102.663 123.73 103.725 124.792 103.725 126.104C103.725 127.416 102.66 128.477 101.351 128.477Z" fill="#B5B7BF"/>
<path opacity="0.7" d="M126.098 78.9851C124.789 78.9851 123.725 77.9237 123.725 76.6117C123.725 75.2997 124.786 74.2383 126.098 74.2383C127.407 74.2383 128.472 75.2997 128.472 76.6117C128.472 77.9237 127.41 78.9851 126.098 78.9851Z" fill="#B5B7BF"/>
<path opacity="0.7" d="M126.098 103.731C124.789 103.731 123.725 102.67 123.725 101.358C123.725 100.046 124.786 98.9844 126.098 98.9844C127.407 98.9844 128.472 100.046 128.472 101.358C128.472 102.67 127.41 103.731 126.098 103.731Z" fill="#41B7A8"/>
<path opacity="0.7" d="M126.098 128.477C124.789 128.477 123.725 127.416 123.725 126.104C123.725 124.792 124.786 123.73 126.098 123.73C127.407 123.73 128.472 124.792 128.472 126.104C128.472 127.416 127.41 128.477 126.098 128.477Z" fill="#41B7A8"/>
<path opacity="0.7" d="M51.8608 29.4929C50.5519 29.4929 49.4905 28.4315 49.4905 27.1195C49.4905 25.8075 50.5519 24.7461 51.8608 24.7461C53.1729 24.7461 54.2342 25.8075 54.2342 27.1195C54.2342 28.4315 53.1729 29.4929 51.8608 29.4929Z" fill="#B5B7BF"/>
<path opacity="0.7" d="M51.8608 54.239C50.5519 54.239 49.4905 53.1776 49.4905 51.8656C49.4905 50.5535 50.5519 49.4922 51.8608 49.4922C53.1729 49.4922 54.2342 50.5535 54.2342 51.8656C54.2342 53.1776 53.1729 54.239 51.8608 54.239Z" fill="#41B7A8"/>
<path opacity="0.7" d="M76.6046 4.74683C75.2956 4.74683 74.2342 3.68546 74.2342 2.37343C74.2342 1.06449 75.2956 0 76.6046 0C77.9166 0 78.9779 1.0614 78.9779 2.37343C78.9779 3.68546 77.9166 4.74683 76.6046 4.74683Z" fill="#B5B7BF"/>
<path opacity="0.7" d="M76.6046 29.4929C75.2956 29.4929 74.2342 28.4315 74.2342 27.1195C74.2342 25.8075 75.2956 24.7461 76.6046 24.7461C77.9166 24.7461 78.9779 25.8075 78.9779 27.1195C78.9779 28.4315 77.9166 29.4929 76.6046 29.4929Z" fill="#B5B7BF"/>
<path opacity="0.7" d="M101.351 4.74683C100.042 4.74683 98.9779 3.68546 98.9779 2.37343C98.9779 1.06449 100.039 0 101.351 0C102.663 0 103.725 1.0614 103.725 2.37343C103.725 3.68546 102.66 4.74683 101.351 4.74683Z" fill="#B5B7BF"/>
<path opacity="0.7" d="M2.37249 4.75074C1.06355 4.75074 0.00219727 3.68936 0.00219727 2.37733C0.00219727 1.0684 1.06355 0.00390625 2.37249 0.00390625C3.68452 0.00390625 4.74588 1.0653 4.74588 2.37733C4.74588 3.68627 3.68452 4.75074 2.37249 4.75074Z" fill="#B5B7BF"/>
<path opacity="0.7" d="M2.37334 29.4968C1.06441 29.4968 0.00305176 28.4354 0.00305176 27.1234C0.00305176 25.8114 1.06441 24.75 2.37334 24.75C3.68537 24.75 4.74673 25.8114 4.74673 27.1234C4.74673 28.4354 3.68537 29.4968 2.37334 29.4968Z" fill="#B5B7BF"/>
<path opacity="0.7" d="M2.37334 54.2429C1.06441 54.2429 0.00305176 53.1815 0.00305176 51.8695C0.00305176 50.5575 1.06441 49.4961 2.37334 49.4961C3.68537 49.4961 4.74673 50.5575 4.74673 51.8695C4.74673 53.1815 3.68537 54.2429 2.37334 54.2429Z" fill="#41B7A8"/>
<path opacity="0.7" d="M27.1171 4.74683C25.8081 4.74683 24.7468 3.68546 24.7468 2.37343C24.7468 1.06449 25.8081 0 27.1171 0C28.4291 0 29.4904 1.0614 29.4904 2.37343C29.4904 3.68546 28.4291 4.74683 27.1171 4.74683Z" fill="#B5B7BF"/>
<path opacity="0.7" d="M27.1171 29.4929C25.8081 29.4929 24.7468 28.4315 24.7468 27.1195C24.7468 25.8075 25.8081 24.7461 27.1171 24.7461C28.4291 24.7461 29.4904 25.8075 29.4904 27.1195C29.4904 28.4315 28.4291 29.4929 27.1171 29.4929Z" fill="#41B7A8"/>
<path opacity="0.7" d="M27.1171 54.239C25.8081 54.239 24.7468 53.1776 24.7468 51.8656C24.7468 50.5535 25.8081 49.4922 27.1171 49.4922C28.4291 49.4922 29.4904 50.5535 29.4904 51.8656C29.4904 53.1776 28.4291 54.239 27.1171 54.239Z" fill="#B5B7BF"/>
<path opacity="0.7" d="M101.351 29.4929C100.042 29.4929 98.9779 28.4315 98.9779 27.1195C98.9779 25.8075 100.039 24.7461 101.351 24.7461C102.663 24.7461 103.725 25.8075 103.725 27.1195C103.725 28.4315 102.66 29.4929 101.351 29.4929Z" fill="#41B7A8"/>
<path opacity="0.7" d="M101.351 54.239C100.042 54.239 98.9779 53.1776 98.9779 51.8656C98.9779 50.5535 100.039 49.4922 101.351 49.4922C102.663 49.4922 103.725 50.5535 103.725 51.8656C103.725 53.1776 102.66 54.239 101.351 54.239Z" fill="#B5B7BF"/>
<path opacity="0.7" d="M126.098 4.74683C124.789 4.74683 123.725 3.68546 123.725 2.37343C123.725 1.06449 124.786 0 126.098 0C127.41 0 128.472 1.0614 128.472 2.37343C128.472 3.68546 127.41 4.74683 126.098 4.74683Z" fill="#B5B7BF"/>
<path opacity="0.7" d="M126.098 29.4929C124.789 29.4929 123.725 28.4315 123.725 27.1195C123.725 25.8075 124.786 24.7461 126.098 24.7461C127.41 24.7461 128.472 25.8075 128.472 27.1195C128.472 28.4315 127.41 29.4929 126.098 29.4929Z" fill="#B5B7BF"/>
<path opacity="0.7" d="M126.098 54.239C124.789 54.239 123.725 53.1776 123.725 51.8656C123.725 50.5535 124.786 49.4922 126.098 49.4922C127.41 49.4922 128.472 50.5535 128.472 51.8656C128.472 53.1776 127.41 54.239 126.098 54.239Z" fill="#B5B7BF"/>
</svg>
