<svg width="23" height="14" viewBox="0 0 23 14" fill="none" xmlns="http://www.w3.org/2000/svg">
<path d="M8.96484 2V1.51172H1.28906L1.25 4.96875H1.71875L2.07031 4.01172C2.2526 3.54297 2.53906 3.27604 2.92969 3.21094C3.08594 3.1849 3.30729 3.17188 3.59375 3.17188H6.71875L3.30078 7.11719L3.76953 7.50781C4.23828 7.3125 4.6875 7.21484 5.11719 7.21484C6.09375 7.21484 6.73177 7.74219 7.03125 8.79688C7.1224 9.14844 7.16797 9.53255 7.16797 9.94922C7.08984 11.9674 6.17839 13.0026 4.43359 13.0547C3.70443 13.0547 3.26823 12.7357 3.125 12.0977C3.08594 11.9544 3.05339 11.7201 3.02734 11.3945C2.97526 10.7435 2.84505 10.3268 2.63672 10.1445C2.45443 10.0013 2.21354 9.92969 1.91406 9.92969C1.30208 9.92969 0.93099 10.1966 0.800781 10.7305C0.77474 10.8477 0.761719 10.9648 0.761719 11.082C0.761719 12.0586 1.34115 12.7682 2.5 13.2109C3.13802 13.4453 3.85417 13.5625 4.64844 13.5625C6.41927 13.5625 7.7474 13.0091 8.63281 11.9023C9.15365 11.2383 9.41406 10.4961 9.41406 9.67578C9.41406 8.58203 8.96484 7.7487 8.06641 7.17578C7.44141 6.78516 6.67969 6.58984 5.78125 6.58984C5.32552 6.58984 4.90234 6.63542 4.51172 6.72656L8.96484 2ZM10.7812 0.28125V0.808594H12.3438V11.4727H10.7812V12H16.4648C18.2487 12 19.7201 11.4531 20.8789 10.3594C22.0247 9.27865 22.5977 7.87891 22.5977 6.16016C22.5977 3.97266 21.7839 2.35156 20.1562 1.29688C19.1016 0.619792 17.8646 0.28125 16.4453 0.28125H10.7812ZM16.4648 0.808594C18.0534 0.808594 19.0885 1.57682 19.5703 3.11328C19.8047 3.89453 19.9219 4.88411 19.9219 6.08203C19.9219 9.0638 19.1602 10.8021 17.6367 11.2969C17.2852 11.4141 16.8945 11.4727 16.4648 11.4727H14.7461V0.808594H16.4648Z" fill="#B5B7BF"/>
</svg>
