<svg width="24" height="28" viewBox="0 0 24 28" fill="none" xmlns="http://www.w3.org/2000/svg">
<path d="M12 0C5.4 0 0 5.3 0 11.9V15.4C0 15.5 0 15.5 0 15.6C0 15.7 0 15.9 0 16C0 18.8 2.2 21 5 21C5.6 21 6 20.6 6 20V12C6 11.4 5.6 11 5 11C3.9 11 2.8 11.4 2 12V11.8C2 6.4 6.5 2 12 2C17.5 2 22 6.4 22 11.9V12C21.2 11.4 20.1 11 19 11C18.4 11 18 11.4 18 12V20C18 20.6 18.4 21 19 21C19.7 21 20.4 20.8 21 20.6C20 22.7 18.2 24.3 16 25.2C16 25.1 16 25.1 16 25C16 24.4 15.6 24 15 24H12C11.4 24 11 24.4 11 25V27C11 27.6 11.4 28 12 28C18.6 28 24 22.8 24 16.4V15.4V13V11.9C24 5.3 18.6 0 12 0Z" fill="#B5B7BF"/>
</svg>
