<svg width="24" height="20" viewBox="0 0 24 20" fill="none" xmlns="http://www.w3.org/2000/svg">
<path fill-rule="evenodd" clip-rule="evenodd" d="M0 20C2.02212 18.5509 5.26193 20.1074 6.54022 17.5839C6.87908 16.9145 6.95071 15.9998 6.64766 15.2725C6.52369 14.9805 6.34187 14.7188 6.09668 14.5204C5.98923 14.4323 5.86802 14.3551 5.73302 14.289C4.06904 13.4625 2.33619 14.6196 1.41604 16.0136C0.570273 17.2974 0.20111 18.9008 0 20ZM10.2594 8.93066C11.3862 9.82877 12.2595 10.8646 12.8545 12.052L23.3205 2.12872C23.866 1.61079 24.1773 1.17275 23.72 0.376578C23.4914 0.142408 23.2517 0.0184356 22.9982 0.00190601C22.7448 -0.0146236 22.4803 0.0762893 22.202 0.2774L10.2594 8.93066ZM6.43829 13.3661C6.92591 13.6278 7.59536 14.2725 7.75515 14.9777L12.2925 12.4873C11.6369 11.1842 10.8049 10.0684 9.65881 9.27503C8.46592 10.8784 7.79372 11.8454 6.43829 13.3661Z" fill="#B5B7BF"/>
</svg>
