<svg width="23" height="20" viewBox="0 0 23 20" fill="none" xmlns="http://www.w3.org/2000/svg">
<path d="M22.4581 10.0023C22.4581 8.51453 20.595 7.1046 17.7385 6.23026C18.3977 3.31884 18.1047 1.00252 16.8138 0.260929C16.5163 0.0869763 16.1684 0.00457764 15.7884 0.00457764V1.02541C15.999 1.02541 16.1684 1.06661 16.3103 1.14443C16.9328 1.50149 17.2029 2.86107 16.9924 4.60975C16.942 5.04005 16.8596 5.49325 16.7589 5.9556C15.8617 5.73587 14.882 5.56649 13.852 5.45663C13.2341 4.60975 12.5932 3.8407 11.9477 3.16777C13.4401 1.78073 14.8408 1.02083 15.793 1.02083V0C14.5341 0 12.8862 0.897231 11.2199 2.45365C9.55358 0.906386 7.90561 0.0183109 6.64674 0.0183109V1.03914C7.59432 1.03914 8.99968 1.79446 10.492 3.17235C9.85113 3.84527 9.21025 4.60975 8.60142 5.45663C7.56686 5.56649 6.58723 5.73587 5.69 5.96017C5.58471 5.5024 5.50689 5.05837 5.45196 4.63264C5.2368 2.88395 5.50231 1.52438 6.1203 1.16274C6.25763 1.08034 6.43616 1.04372 6.64674 1.04372V0.0228885C6.26221 0.0228885 5.9143 0.105287 5.61218 0.27924C4.32584 1.02083 4.03745 3.33257 4.70121 6.23484C1.85388 7.11376 -9.15527e-05 8.51911 -9.15527e-05 10.0023C-9.15527e-05 11.49 1.86303 12.9 4.71952 13.7743C4.06033 16.6857 4.35331 19.0021 5.64422 19.7436C5.94177 19.9176 6.28968 20 6.6742 20C7.93307 20 9.58105 19.1028 11.2473 17.5463C12.9136 19.0936 14.5616 19.9817 15.8205 19.9817C16.205 19.9817 16.5529 19.8993 16.855 19.7253C18.1414 18.9837 18.4298 16.672 17.766 13.7697C20.6042 12.8954 22.4581 11.4855 22.4581 10.0023ZM16.498 6.94896C16.3286 7.53948 16.118 8.14832 15.88 8.75715C15.6923 8.39093 15.4954 8.02472 15.2803 7.6585C15.0697 7.29229 14.8454 6.93523 14.6211 6.58732C15.2711 6.68345 15.8983 6.80247 16.498 6.94896ZM14.4014 11.8242C14.0443 12.4422 13.6781 13.0282 13.2981 13.5729C12.6161 13.6324 11.9248 13.6645 11.229 13.6645C10.5378 13.6645 9.84655 13.6324 9.16905 13.5775C8.7891 13.0327 8.41831 12.4514 8.06125 11.8379C7.71334 11.2383 7.39748 10.6294 7.10909 10.016C7.3929 9.40261 7.71334 8.7892 8.05667 8.18952C8.41373 7.57153 8.77995 6.98558 9.1599 6.44083C9.84198 6.38132 10.5332 6.34928 11.229 6.34928C11.9203 6.34928 12.6115 6.38132 13.289 6.43626C13.6689 6.981 14.0397 7.56237 14.3968 8.17578C14.7447 8.77546 15.0606 9.3843 15.349 9.99771C15.0606 10.6111 14.7447 11.2245 14.4014 11.8242ZM15.88 11.2291C16.1272 11.8425 16.3377 12.4559 16.5117 13.051C15.912 13.1975 15.2803 13.3211 14.6257 13.4173C14.85 13.0648 15.0743 12.7031 15.2849 12.3323C15.4954 11.9661 15.6923 11.5953 15.88 11.2291ZM11.2382 16.1135C10.8125 15.6741 10.3867 15.1843 9.96558 14.6487C10.3776 14.667 10.7987 14.6807 11.2244 14.6807C11.6547 14.6807 12.0805 14.6715 12.497 14.6487C12.0851 15.1843 11.6593 15.6741 11.2382 16.1135ZM7.83236 13.4173C7.18233 13.3211 6.55518 13.2021 5.9555 13.0556C6.12488 12.4651 6.33545 11.8563 6.57349 11.2474C6.76118 11.6136 6.95802 11.9799 7.17317 12.3461C7.38833 12.7123 7.60806 13.0694 7.83236 13.4173ZM11.2153 3.89105C11.641 4.33051 12.0667 4.82032 12.4879 5.35592C12.0759 5.33761 11.6547 5.32387 11.229 5.32387C10.7987 5.32387 10.373 5.33303 9.95642 5.35592C10.3684 4.82032 10.7941 4.33051 11.2153 3.89105ZM7.82779 6.58732C7.60348 6.9398 7.37917 7.30144 7.1686 7.67224C6.95802 8.03845 6.76118 8.40467 6.57349 8.77089C6.3263 8.15747 6.11572 7.54406 5.94177 6.94896C6.54145 6.80705 7.17317 6.68345 7.82779 6.58732ZM3.68496 12.3186C2.06445 11.6274 1.01616 10.721 1.01616 10.0023C1.01616 9.28359 2.06445 8.37262 3.68496 7.68597C4.07865 7.51659 4.50895 7.36553 4.95299 7.22362C5.21392 8.12085 5.55724 9.0547 5.98297 10.0114C5.56182 10.9636 5.22307 11.8929 4.96672 12.7855C4.51353 12.6436 4.08322 12.488 3.68496 12.3186ZM6.14777 18.8601C5.5252 18.5031 5.25512 17.1435 5.46569 15.3948C5.51605 14.9645 5.59844 14.5113 5.69915 14.049C6.59638 14.2687 7.57601 14.4381 8.606 14.548C9.22399 15.3948 9.86487 16.1639 10.5103 16.8368C9.01799 18.2238 7.61721 18.9837 6.66505 18.9837C6.45905 18.9792 6.2851 18.938 6.14777 18.8601ZM17.0061 15.3719C17.2212 17.1206 16.9557 18.4802 16.3377 18.8418C16.2004 18.9242 16.0219 18.9609 15.8113 18.9609C14.8637 18.9609 13.4584 18.2055 11.966 16.8276C12.6069 16.1547 13.2478 15.3902 13.8566 14.5434C14.8912 14.4335 15.8708 14.2641 16.768 14.0398C16.8733 14.5022 16.9557 14.9462 17.0061 15.3719ZM18.7685 12.3186C18.3748 12.488 17.9445 12.639 17.5005 12.781C17.2395 11.8837 16.8962 10.9499 16.4705 9.99313C16.8916 9.04097 17.2304 8.1117 17.4867 7.21904C17.9399 7.36095 18.3702 7.51659 18.7731 7.68597C20.3936 8.3772 21.4419 9.28359 21.4419 10.0023C21.4373 10.721 20.389 11.632 18.7685 12.3186Z" fill="#B5B7BF"/>
</svg>
