<svg width="53" height="18" viewBox="0 0 53 18" fill="none" xmlns="http://www.w3.org/2000/svg">
<path d="M0.195312 2.80859H1.75781V9.66406C1.78385 12.6719 3.39193 14.1823 6.58203 14.1953C8.71745 14.1953 10.0521 13.3685 10.5859 11.7148C10.7812 11.0768 10.8789 10.3151 10.8789 9.42969V2.80859H12.4414V2.28125H8.61328V2.80859H10.1758V9.54688C10.1628 12.2552 9.10156 13.6159 6.99219 13.6289C5.52083 13.6289 4.6224 12.8542 4.29688 11.3047C4.19271 10.7969 4.14062 10.2044 4.14062 9.52734V2.80859H5.70312V2.28125H0.195312V2.80859ZM18.5742 14C18.4961 13.6745 18.3203 13.4987 18.0469 13.4727H17.0117V2.80859H18.5742V2.28125H13.0469V2.80859H14.6094V13.4727H13.0469V14H18.5742ZM20.5859 17.0273L27.2461 0.132812H25.7422L19.082 17.0273H20.5859ZM27.6367 2.80859H29.1992V9.66406C29.2253 12.6719 30.8333 14.1823 34.0234 14.1953C36.1589 14.1953 37.4935 13.3685 38.0273 11.7148C38.2227 11.0768 38.3203 10.3151 38.3203 9.42969V2.80859H39.8828V2.28125H36.0547V2.80859H37.6172V9.54688C37.6042 12.2552 36.543 13.6159 34.4336 13.6289C32.9622 13.6289 32.0638 12.8542 31.7383 11.3047C31.6341 10.7969 31.582 10.2044 31.582 9.52734V2.80859H33.1445V2.28125H27.6367V2.80859ZM43.7695 14V13.4727H42.207L45.4297 8.96094L48.3984 13.4727H46.9922V14H52.1875C52.1094 13.6745 51.9336 13.4987 51.6602 13.4727H51.0547L46.9922 7.41797L49.9023 3.35547C50.1497 3.01693 50.4297 2.83464 50.7422 2.80859C50.8073 2.80859 50.8789 2.80859 50.957 2.80859C51.2695 2.70443 51.4388 2.52865 51.4648 2.28125H48.0273V2.80859H49.5898L46.6602 6.91016L43.9062 2.80859H45.3125V2.28125H40.2148V2.80859H41.3672L45.0586 8.41406L41.8359 12.9258C41.5495 13.2904 41.1458 13.4727 40.625 13.4727C40.3125 13.5768 40.1432 13.7526 40.1172 14H43.7695Z" fill="#B5B7BF"/>
</svg>
