<svg width="30" height="20" viewBox="0 0 30 20" fill="none" xmlns="http://www.w3.org/2000/svg">
<path d="M29.3379 3.13187C28.9878 1.89927 27.9777 0.937729 26.6828 0.604396C24.3548 0 14.9848 0 14.9848 0C14.9848 0 5.61489 0.018315 3.28684 0.622711C1.99198 0.956044 0.981872 1.91758 0.631702 3.15018C-0.0724856 7.08791 -0.345695 13.0879 0.650943 16.8681C1.00111 18.1007 2.01122 19.0623 3.30608 19.3956C5.63413 20 15.0041 20 15.0041 20C15.0041 20 24.374 20 26.7021 19.3956C27.9969 19.0623 29.007 18.1007 29.3572 16.8681C30.0999 12.9249 30.3288 6.92857 29.3379 3.13187ZM12.0026 14.2857V5.71429L19.7756 10L12.0026 14.2857Z" fill="#B5B7BF"/>
</svg>
