<svg width="20" height="20" viewBox="0 0 20 20" fill="none" xmlns="http://www.w3.org/2000/svg">
<path d="M19.8034 12.0953L16.9574 7.68284C16.7363 7.34184 16.3636 7.13641 15.9582 7.13641H14.7011C14.5168 7.13641 14.4062 7.34184 14.5086 7.49385L17.5799 12.2597C17.6208 12.3213 17.5758 12.4035 17.502 12.4035H16.1548H15.0573H14.0049C13.878 12.4035 13.7797 12.5062 13.7715 12.6294C13.6527 14.6179 12.0106 16.1956 9.99591 16.1956C7.98116 16.1956 6.33907 14.6179 6.22031 12.6294C6.21212 12.5021 6.11384 12.4035 5.9869 12.4035H4.93448H3.99263H2.49386C2.42015 12.4035 2.3792 12.3213 2.41605 12.2597L5.48731 7.49385C5.58559 7.33773 5.47502 7.13641 5.29484 7.13641H4.03767C3.63227 7.13641 3.25962 7.34184 3.03849 7.68284L0.19656 12.0953C0.0696151 12.2925 0 12.5267 0 12.765V18.9113C0 19.5111 0.487305 20 1.08518 20H10H18.9148C19.5127 20 20 19.5111 20 18.9113V12.765C20 12.5267 19.9345 12.2966 19.8034 12.0953Z" fill="#F3BD4D"/>
<path d="M10.3275 0.16023C10.1596 -0.05341 9.83612 -0.05341 9.66823 0.16023L6.96962 3.60312C6.75258 3.87839 6.94914 4.28513 7.29722 4.28513H8.36192V10.7888C8.36192 11.6968 9.09492 12.4322 9.99992 12.4322C10.9049 12.4322 11.6379 11.6968 11.6379 10.7888V4.28102H12.7026C13.0507 4.28102 13.2473 3.87428 13.0302 3.59901L10.3275 0.16023Z" fill="#F3BD4D"/>
</svg>
