<svg width="127" height="24" viewBox="0 0 127 24" fill="none" xmlns="http://www.w3.org/2000/svg">
<path d="M22.8697 0L11.436 11.4222L0.00238037 0H0V24H4.05513V9.77698L11.4384 17.1529L14.3054 14.2887L14.303 14.2864L18.8202 9.77369V24H22.8754L22.8697 0Z" fill="#F1F1F1"/>
<path d="M126.456 0L115.022 11.4222L103.589 0H103.586V24H107.642V9.77698L115.025 17.1529L117.892 14.2887L117.889 14.2864L122.407 9.77369V24H126.462L126.456 0Z" fill="#F1F1F1"/>
<path fill-rule="evenodd" clip-rule="evenodd" d="M50.9603 12C50.9603 18.6274 45.5811 24 38.9455 24C32.3099 24 26.9307 18.6274 26.9307 12C26.9307 5.37258 32.3099 0 38.9455 0C45.5811 0 50.9603 5.37258 50.9603 12ZM46.9051 12.0001C46.9051 16.3906 43.3414 19.9499 38.9454 19.9499C34.5494 19.9499 30.9857 16.3906 30.9857 12.0001C30.9857 7.60946 34.5494 4.05018 38.9454 4.05018C43.3414 4.05018 46.9051 7.60946 46.9051 12.0001Z" fill="#F1F1F1"/>
<path d="M88.3247 0.000171661L99.5303 24H95.056L88.3247 9.58262L81.5935 24H77.1191L88.3247 0.000171661Z" fill="#F1F1F1"/>
<path d="M57.927 4.05013V0H73.0635V18.7166C70.9037 21.9044 67.2504 24 63.1063 24C59.9931 24 57.1564 22.8174 55.0221 20.8774L57.8943 18.0087C59.2907 19.218 61.113 19.9499 63.1063 19.9499C65.4471 19.9499 67.5519 18.9407 69.0084 17.3342V4.05013H57.927Z" fill="#F1F1F1"/>
</svg>
