<svg width="20" height="20" viewBox="0 0 20 20" fill="none" xmlns="http://www.w3.org/2000/svg">
<path d="M10 -0.000854492C4.47716 -0.000854492 0 4.47452 0 9.99914C0 15.522 4.47537 19.9991 10 19.9991C15.5246 19.9991 20 15.522 20 9.99914C20 4.4763 15.5228 -0.000854492 10 -0.000854492ZM10.7548 18.4538V17.7811C10.7548 17.3635 10.4176 17.0263 10 17.0263C9.58244 17.0263 9.24518 17.3635 9.24518 17.7811V18.4538C5.15703 18.0916 1.89508 14.8207 1.54354 10.7308H2.19308C2.61064 10.7308 2.94789 10.3935 2.94789 9.97595C2.94789 9.55839 2.61064 9.22113 2.19308 9.22113H1.54711C1.91827 5.15261 5.17309 1.90493 9.24518 1.54447V2.16902C9.24518 2.58658 9.58244 2.92384 10 2.92384C10.4176 2.92384 10.7548 2.58658 10.7548 2.16902V1.54447C14.8269 1.90493 18.0817 5.15261 18.4529 9.22113H17.8069C17.3894 9.22113 17.0521 9.55839 17.0521 9.97595C17.0521 10.3935 17.3894 10.7308 17.8069 10.7308H18.4565C18.1049 14.8207 14.843 18.0916 10.7548 18.4538Z" fill="#87898E"/>
<path d="M14.495 5.12763L10.025 9.81178C10.0161 9.81178 10.0089 9.81 10 9.81C9.9447 9.81 9.88938 9.81535 9.83585 9.82606L6.09567 6.99951C5.84763 6.81393 5.49252 6.86032 5.30337 7.11193C5.11422 7.35996 5.16419 7.71685 5.41401 7.90422L9.15419 10.7308C9.18988 11.1662 9.55569 11.5088 10 11.5088C10.4693 11.5088 10.8494 11.1287 10.8494 10.6594C10.8494 10.6362 10.8476 10.6148 10.8458 10.5934L15.3159 5.90921C15.5318 5.68259 15.5246 5.3257 15.2962 5.108C15.0696 4.89208 14.7127 4.90101 14.495 5.12763Z" fill="#87898E"/>
</svg>
